<svg width="261" height="15" xmlns="http://www.w3.org/2000/svg"><g fill="none"><path d="M31.66 9.712h1.582c.915 0 1.624-.278 2.128-.833.504-.555.756-1.486.756-2.793 0-1.185-.252-2.079-.756-2.681-.504-.602-1.185-.903-2.044-.903H31.66v7.21zM30.26 11V1.2h3.136a4.14 4.14 0 0 1 2.926 1.162c.401.383.721.894.959 1.533.238.64.357 1.37.357 2.191 0 .896-.121 1.675-.364 2.338s-.574 1.174-.994 1.533a4.16 4.16 0 0 1-1.365.791 4.913 4.913 0 0 1-1.603.252H30.26zm14.168-2.366l1.022.77c-.29.523-.69.954-1.204 1.295-.513.34-1.139.511-1.876.511-1.027 0-1.862-.357-2.506-1.071-.644-.714-.966-1.664-.966-2.849 0-1.185.32-2.135.959-2.849.64-.714 1.454-1.071 2.443-1.071.99 0 1.797.352 2.422 1.057.625.705.938 1.659.938 2.863v.406h-5.376c.019.663.203 1.211.553 1.645.35.434.852.651 1.505.651.308 0 .581-.042.819-.126a1.62 1.62 0 0 0 .616-.385c.173-.173.296-.31.371-.413a6.17 6.17 0 0 0 .28-.434zm-4.13-2.002h4.004c-.028-.57-.205-1.052-.532-1.449-.327-.397-.817-.595-1.47-.595-.625 0-1.11.212-1.456.637a2.318 2.318 0 0 0-.546 1.407zm6.552 1.876l1.26-.28c.14 1.213.78 1.82 1.918 1.82.541 0 .957-.098 1.246-.294.29-.196.434-.453.434-.77 0-.327-.135-.572-.406-.735-.27-.163-.835-.366-1.694-.609-.896-.243-1.535-.525-1.918-.847-.383-.322-.574-.758-.574-1.309 0-.57.236-1.064.707-1.484.471-.42 1.118-.63 1.939-.63.83 0 1.489.196 1.974.588.485.392.817.915.994 1.568l-1.176.322c-.29-.887-.882-1.33-1.778-1.33-.448 0-.793.091-1.036.273-.243.182-.364.399-.364.651 0 .28.126.49.378.63s.84.34 1.764.602c.924.261 1.561.567 1.911.917.35.35.525.819.525 1.407.01.588-.229 1.104-.714 1.547-.485.443-1.209.665-2.17.665-.999 0-1.764-.257-2.296-.77-.532-.513-.84-1.157-.924-1.932zM54.704 11V3.58h1.358V11h-1.358zm-.056-8.778V.78h1.47v1.442h-1.47zM58.414 12.4l1.092-.63c.196.439.436.78.721 1.022.285.243.674.364 1.169.364.55 0 .985-.159 1.302-.476.317-.317.476-.775.476-1.372v-.966h-.028c-.439.579-1.101.868-1.988.868-.97 0-1.762-.352-2.373-1.057-.611-.705-.917-1.659-.917-2.863 0-1.185.315-2.135.945-2.849.63-.714 1.407-1.071 2.331-1.071.859 0 1.54.308 2.044.924h.028V3.58h1.316v7.49c0 1.073-.28 1.89-.84 2.45-.56.56-1.32.84-2.282.84-.756 0-1.39-.18-1.904-.539a2.917 2.917 0 0 1-1.092-1.421zm4.76-4.004V6.324c0-.448-.166-.845-.497-1.19-.331-.345-.768-.518-1.309-.518-.672 0-1.197.233-1.575.7-.378.467-.567 1.125-.567 1.974 0 .85.189 1.51.567 1.981.378.471.903.707 1.575.707.523 0 .954-.156 1.295-.469.34-.313.511-.684.511-1.113zM66.702 11V3.58h1.33v.714h.028c.196-.261.48-.48.854-.658a2.708 2.708 0 0 1 1.176-.266c.812 0 1.46.247 1.946.742.485.495.728 1.171.728 2.03V11h-1.372V6.534c0-1.27-.523-1.904-1.568-1.904-.532 0-.959.152-1.281.455-.322.303-.483.721-.483 1.253V11h-1.358zm13.272-2.366l1.022.77c-.29.523-.69.954-1.204 1.295-.513.34-1.139.511-1.876.511-1.027 0-1.862-.357-2.506-1.071-.644-.714-.966-1.664-.966-2.849 0-1.185.32-2.135.959-2.849.64-.714 1.454-1.071 2.443-1.071.99 0 1.797.352 2.422 1.057.625.705.938 1.659.938 2.863v.406H75.83c.019.663.203 1.211.553 1.645.35.434.852.651 1.505.651.308 0 .581-.042.819-.126a1.62 1.62 0 0 0 .616-.385c.173-.173.296-.31.371-.413a6.17 6.17 0 0 0 .28-.434zm-4.13-2.002h4.004c-.028-.57-.205-1.052-.532-1.449-.327-.397-.817-.595-1.47-.595-.625 0-1.11.212-1.456.637a2.318 2.318 0 0 0-.546 1.407zm11.858 1.722V6.366c0-.457-.163-.863-.49-1.218-.327-.355-.765-.532-1.316-.532-.663 0-1.174.231-1.533.693-.36.462-.539 1.122-.539 1.981s.177 1.521.532 1.988c.355.467.868.7 1.54.7.532 0 .966-.161 1.302-.483.336-.322.504-.702.504-1.141zM87.814 11v-.714h-.028c-.541.616-1.241.924-2.1.924-.98 0-1.762-.355-2.345-1.064-.583-.71-.875-1.661-.875-2.856 0-1.185.31-2.135.931-2.849.62-.714 1.379-1.071 2.275-1.071.803 0 1.47.308 2.002.924h.028V.78h1.358V11h-1.246zm11.256 0v-.784h-.028c-.103.205-.343.422-.721.651-.378.229-.866.343-1.463.343-.85 0-1.486-.203-1.911-.609-.425-.406-.637-.917-.637-1.533 0-.625.189-1.11.567-1.456.378-.345 1.02-.63 1.925-.854.803-.205 1.346-.383 1.631-.532.285-.15.427-.369.427-.658a.88.88 0 0 0-.364-.721c-.243-.191-.607-.287-1.092-.287-.924 0-1.498.467-1.722 1.4l-1.19-.42c.13-.644.443-1.167.938-1.568.495-.401 1.143-.602 1.946-.602.868 0 1.566.222 2.093.665.527.443.791 1.132.791 2.065V11h-1.19zm-1.96-3.248c-.579.159-.968.331-1.169.518a.932.932 0 0 0-.301.714c0 .681.448 1.022 1.344 1.022.625 0 1.106-.135 1.442-.406.336-.27.504-.602.504-.994V6.94h-.028a.581.581 0 0 1-.168.217c-.075.06-.247.145-.518.252-.27.107-.64.222-1.106.343zM102.36 11V3.58h1.33v.714h.028c.196-.261.48-.48.854-.658a2.708 2.708 0 0 1 1.176-.266c.812 0 1.46.247 1.946.742.485.495.728 1.171.728 2.03V11h-1.372V6.534c0-1.27-.523-1.904-1.568-1.904-.532 0-.959.152-1.281.455-.322.303-.483.721-.483 1.253V11h-1.358zm12.978-2.646V6.366c0-.457-.163-.863-.49-1.218-.327-.355-.765-.532-1.316-.532-.663 0-1.174.231-1.533.693-.36.462-.539 1.122-.539 1.981s.177 1.521.532 1.988c.355.467.868.7 1.54.7.532 0 .966-.161 1.302-.483.336-.322.504-.702.504-1.141zM115.45 11v-.714h-.028c-.541.616-1.241.924-2.1.924-.98 0-1.762-.355-2.345-1.064-.583-.71-.875-1.661-.875-2.856 0-1.185.31-2.135.931-2.849.62-.714 1.379-1.071 2.275-1.071.803 0 1.47.308 2.002.924h.028V.78h1.358V11h-1.246zm7.196 0V1.2h1.4V11h-1.4zm3.85 0V3.58h1.232v.714h.028a1.96 1.96 0 0 1 .777-.665 2.36 2.36 0 0 1 1.085-.259c.439 0 .824.1 1.155.301.331.2.586.45.763.749h.028c.196-.29.476-.537.84-.742.364-.205.77-.308 1.218-.308.821 0 1.47.233 1.946.7.476.467.714 1.092.714 1.876V11h-1.288V6.296c0-1.11-.48-1.666-1.442-1.666-.476 0-.845.14-1.106.42-.261.28-.392.663-.392 1.148V11h-1.288V6.296c0-1.11-.48-1.666-1.442-1.666-.495 0-.868.147-1.12.441-.252.294-.378.67-.378 1.127V11h-1.33zm13.314-4.676v2.072c0 .43.17.8.511 1.113.34.313.772.469 1.295.469.672 0 1.197-.236 1.575-.707.378-.471.567-1.132.567-1.981 0-.85-.189-1.507-.567-1.974-.378-.467-.903-.7-1.575-.7-.541 0-.978.173-1.309.518-.331.345-.497.742-.497 1.19zm-1.358 7.826V3.58h1.302v.714h.028a2.23 2.23 0 0 1 .364-.364c.15-.121.383-.245.7-.371a2.744 2.744 0 0 1 1.022-.189c.905 0 1.673.357 2.303 1.071.63.714.945 1.664.945 2.849 0 1.204-.303 2.158-.91 2.863-.607.705-1.381 1.057-2.324 1.057-.504 0-.933-.103-1.288-.308-.355-.205-.607-.41-.756-.616h-.028v3.864h-1.358zm8.414-3.15V.78h1.4V11h-1.4zm8.68-2.366l1.022.77c-.29.523-.69.954-1.204 1.295-.513.34-1.139.511-1.876.511-1.027 0-1.862-.357-2.506-1.071-.644-.714-.966-1.664-.966-2.849 0-1.185.32-2.135.959-2.849.64-.714 1.454-1.071 2.443-1.071.99 0 1.797.352 2.422 1.057.625.705.938 1.659.938 2.863v.406h-5.376c.019.663.203 1.211.553 1.645.35.434.852.651 1.505.651.308 0 .581-.042.819-.126a1.62 1.62 0 0 0 .616-.385c.173-.173.296-.31.371-.413a6.17 6.17 0 0 0 .28-.434zm-4.13-2.002h4.004c-.028-.57-.205-1.052-.532-1.449-.327-.397-.817-.595-1.47-.595-.625 0-1.11.212-1.456.637a2.318 2.318 0 0 0-.546 1.407zM158.528 11V3.58h1.232v.714h.028a1.96 1.96 0 0 1 .777-.665 2.36 2.36 0 0 1 1.085-.259c.439 0 .824.1 1.155.301.331.2.586.45.763.749h.028c.196-.29.476-.537.84-.742.364-.205.77-.308 1.218-.308.821 0 1.47.233 1.946.7.476.467.714 1.092.714 1.876V11h-1.288V6.296c0-1.11-.48-1.666-1.442-1.666-.476 0-.845.14-1.106.42-.261.28-.392.663-.392 1.148V11h-1.288V6.296c0-1.11-.48-1.666-1.442-1.666-.495 0-.868.147-1.12.441-.252.294-.378.67-.378 1.127V11h-1.33zm16.996-2.366l1.022.77c-.29.523-.69.954-1.204 1.295-.513.34-1.139.511-1.876.511-1.027 0-1.862-.357-2.506-1.071-.644-.714-.966-1.664-.966-2.849 0-1.185.32-2.135.959-2.849.64-.714 1.454-1.071 2.443-1.071.99 0 1.797.352 2.422 1.057.625.705.938 1.659.938 2.863v.406h-5.376c.019.663.203 1.211.553 1.645.35.434.852.651 1.505.651.308 0 .581-.042.819-.126a1.62 1.62 0 0 0 .616-.385c.173-.173.296-.31.371-.413a6.17 6.17 0 0 0 .28-.434zm-4.13-2.002h4.004c-.028-.57-.205-1.052-.532-1.449-.327-.397-.817-.595-1.47-.595-.625 0-1.11.212-1.456.637a2.318 2.318 0 0 0-.546 1.407zM178.506 11V3.58h1.33v.714h.028c.196-.261.48-.48.854-.658a2.708 2.708 0 0 1 1.176-.266c.812 0 1.46.247 1.946.742.485.495.728 1.171.728 2.03V11h-1.372V6.534c0-1.27-.523-1.904-1.568-1.904-.532 0-.959.152-1.281.455-.322.303-.483.721-.483 1.253V11h-1.358zm8.554-2.324V4.77h-1.092V3.58h1.12V1.76h1.302v1.82h1.848v1.19h-1.834v3.766c0 .42.063.716.189.889.126.173.38.259.763.259h.56V11h-.658c-.803 0-1.37-.191-1.701-.574-.331-.383-.497-.966-.497-1.75zm9.898-.042l1.022.77c-.29.523-.69.954-1.204 1.295-.513.34-1.139.511-1.876.511-1.027 0-1.862-.357-2.506-1.071-.644-.714-.966-1.664-.966-2.849 0-1.185.32-2.135.959-2.849.64-.714 1.454-1.071 2.443-1.071.99 0 1.797.352 2.422 1.057.625.705.938 1.659.938 2.863v.406h-5.376c.019.663.203 1.211.553 1.645.35.434.852.651 1.505.651.308 0 .581-.042.819-.126a1.62 1.62 0 0 0 .616-.385c.173-.173.296-.31.371-.413a6.17 6.17 0 0 0 .28-.434zm-4.13-2.002h4.004c-.028-.57-.205-1.052-.532-1.449-.327-.397-.817-.595-1.47-.595-.625 0-1.11.212-1.456.637a2.318 2.318 0 0 0-.546 1.407zm11.858 1.722V6.366c0-.457-.163-.863-.49-1.218-.327-.355-.765-.532-1.316-.532-.663 0-1.174.231-1.533.693-.36.462-.539 1.122-.539 1.981s.177 1.521.532 1.988c.355.467.868.7 1.54.7.532 0 .966-.161 1.302-.483.336-.322.504-.702.504-1.141zm.112 2.646v-.714h-.028c-.541.616-1.241.924-2.1.924-.98 0-1.762-.355-2.345-1.064-.583-.71-.875-1.661-.875-2.856 0-1.185.31-2.135.931-2.849.62-.714 1.379-1.071 2.275-1.071.803 0 1.47.308 2.002.924h.028V.78h1.358V11h-1.246zm8.344-4.634v1.988c0 .439.168.819.504 1.141.336.322.77.483 1.302.483.672 0 1.185-.233 1.54-.7.355-.467.532-1.13.532-1.988 0-.859-.18-1.519-.539-1.981-.36-.462-.87-.693-1.533-.693-.55 0-.99.177-1.316.532-.327.355-.49.76-.49 1.218zM211.784 11V.78h1.358v3.514h.028a2.55 2.55 0 0 1 2.016-.924c.924 0 1.687.36 2.289 1.078.602.719.903 1.666.903 2.842 0 1.195-.292 2.147-.875 2.856-.583.71-1.365 1.064-2.345 1.064-.859 0-1.559-.308-2.1-.924h-.028V11h-1.246zm8.806 3.15l1.428-3.668-2.8-6.902h1.428l2.03 5.306 2.016-5.306h1.4l-4.172 10.57h-1.33zM233.05 11V2.502h-2.968V1.2h7.35v1.302h-2.982V11h-1.4zm8.694-1.022c.597 0 1.083-.236 1.456-.707s.56-1.132.56-1.981c0-.84-.187-1.496-.56-1.967a1.771 1.771 0 0 0-1.456-.707c-.616 0-1.113.231-1.491.693-.378.462-.567 1.122-.567 1.981s.191 1.521.574 1.988c.383.467.877.7 1.484.7zm0 1.232c-.99 0-1.804-.345-2.443-1.036-.64-.69-.959-1.652-.959-2.884 0-1.213.327-2.17.98-2.87.653-.7 1.46-1.05 2.422-1.05.943 0 1.738.35 2.387 1.05.649.7.973 1.657.973 2.87 0 1.232-.315 2.193-.945 2.884-.63.69-1.435 1.036-2.415 1.036zm5.11-.21V3.58h1.33v.714h.028c.196-.261.48-.48.854-.658a2.708 2.708 0 0 1 1.176-.266c.812 0 1.46.247 1.946.742.485.495.728 1.171.728 2.03V11h-1.372V6.534c0-1.27-.523-1.904-1.568-1.904-.532 0-.959.152-1.281.455-.322.303-.483.721-.483 1.253V11h-1.358zm8.694 3.15l1.428-3.668-2.8-6.902h1.428l2.03 5.306 2.016-5.306h1.4l-4.172 10.57h-1.33z" fill="#FFF"/><path d="M9.425 7.5c-1.291-2.226-3.07-4-5.014-4C2.257 3.5.5 5.293.5 7.5s1.757 4 3.91 4c1.945 0 3.723-1.774 5.015-4zm1.15-3c1.291 2.226 3.07 4 5.014 4 2.154 0 3.911-1.793 3.911-4s-1.757-4-3.91-4c-1.944 0-3.724 1.774-5.015 4z" stroke="#FFF"/></g></svg>