<?xml version="1.0" encoding="UTF-8"?>
<svg width="1024px" height="768px" viewBox="0 0 1024 768" version="1.1" xmlns="http://www.w3.org/2000/svg" xmlns:xlink="http://www.w3.org/1999/xlink">
    <!-- Generator: Sketch 55.2 (78181) - https://sketchapp.com -->
    <title>Group 8</title>
    <desc>Created with Sketch.</desc>
    <defs>
        <rect id="path-1" x="0" y="0" width="1024" height="768"></rect>
        <path d="M0.947599717,0.863367838 L215.026721,0.863367838 L215.026721,242.236466 C330.137153,107.938276 393.53408,49.8299374 405.217502,67.9114506 C408.727457,73.3435313 546.275011,50.9941704 817.860165,0.863367838 C791.456138,70.2291352 768.910924,112.692921 750.224523,128.254725 C698.037603,171.715346 890.427445,177.180304 846.952209,208.712424 C670.088123,336.990046 327.574592,405 321.671968,405 C285.894246,405 178.986123,350.745489 0.947599717,242.236466 L0.947599717,0.863367838 Z" id="path-3"></path>
    </defs>
    <g id="Page-1" stroke="none" stroke-width="1" fill="none" fill-rule="evenodd">
        <g id="Web-Landing">
            <g id="Group-8">
                <mask id="mask-2" fill="white">
                    <use xlink:href="#path-1"></use>
                </mask>
                <use id="Rectangle" fill="#212529" xlink:href="#path-1"></use>
                <g id="Group" mask="url(#mask-2)">
                    <g transform="translate(135.000000, 108.000000)">
                        <g id="i-2" transform="translate(15.000000, 77.000000)">
                            <path d="M452.841246,328.551283 C444.409499,314.167826 433.991045,298.059829 421.728188,281.203389 C404.825649,257.969272 386.360595,236.036595 366.494322,216.435597 C314.301022,164.939234 258.45334,135.102564 200.254089,135.102564 C90.3827758,135.102564 1,221.892138 1,328.551282 C1,435.210426 90.3827758,522 200.254089,522 C258.46057,522 314.309409,492.163531 366.500461,440.666984 C386.365591,421.066199 404.829048,399.133823 421.730473,375.899209 C433.991351,359.044015 444.406945,342.939161 452.841246,328.551283 Z" id="Path" stroke="#38D9A9" stroke-width="2" fill-rule="nonzero"></path>
                            <path d="M455.158755,194.448718 C463.590501,208.832174 474.008955,224.940171 486.271812,241.796611 C503.174351,265.030728 521.639405,286.963405 541.505678,306.564403 C593.698978,358.060766 649.54666,387.897436 707.745911,387.897436 C817.617224,387.897436 907,301.107862 907,194.448718 C907,87.789574 817.617224,1 707.745911,1 C649.54666,1 593.698978,30.8366703 541.505678,82.3330324 C521.639405,101.934031 503.174351,123.866708 486.271812,147.100825 C474.008955,163.957265 463.590501,180.065261 455.158755,194.448718 Z" id="Path" stroke="#38D9A9" stroke-width="2" fill-rule="nonzero"></path>
                        </g>
                        <g id="i-2" transform="translate(38.000000, 54.000000)">
                            <path d="M452.841246,328.551283 C444.409499,314.167826 433.991045,298.059829 421.728188,281.203389 C404.825649,257.969272 386.360595,236.036595 366.494322,216.435597 C314.301022,164.939234 258.45334,135.102564 200.254089,135.102564 C90.3827758,135.102564 1,221.892138 1,328.551282 C1,435.210426 90.3827758,522 200.254089,522 C258.46057,522 314.309409,492.163531 366.500461,440.666984 C386.365591,421.066199 404.829048,399.133823 421.730473,375.899209 C433.991351,359.044015 444.406945,342.939161 452.841246,328.551283 Z" id="Path" stroke="#228BE6" stroke-width="2" fill-rule="nonzero"></path>
                            <path d="M455.158755,194.448718 C463.590501,208.832174 474.008955,224.940171 486.271812,241.796611 C503.174351,265.030728 521.639405,286.963405 541.505678,306.564403 C593.698978,358.060766 649.54666,387.897436 707.745911,387.897436 C817.617224,387.897436 907,301.107862 907,194.448718 C907,87.789574 817.617224,1 707.745911,1 C649.54666,1 593.698978,30.8366703 541.505678,82.3330324 C521.639405,101.934031 503.174351,123.866708 486.271812,147.100825 C474.008955,163.957265 463.590501,180.065261 455.158755,194.448718 Z" id="Path" stroke="#228BE6" stroke-width="2" fill-rule="nonzero"></path>
                        </g>
                        <g id="i-2" transform="translate(0.000000, 31.000000)">
                            <path d="M453.879125,299.18919 C445.429074,284.929269 434.988569,268.960175 422.700158,252.249213 C405.759058,229.211076 387.25186,207.46338 367.340199,188.027652 C315.026602,136.964466 259.049449,107.378378 200.713304,107.378378 C90.586476,107.378378 1,193.435676 1,299.189189 C1,404.942703 90.586476,491 200.713304,491 C259.056695,491 315.035008,461.414112 367.346353,410.350743 C387.256867,390.915227 405.762464,369.167829 422.702447,346.129199 C434.988876,329.419472 445.426516,313.453492 453.879125,299.18919 Z" id="Path" stroke="#D6336C" stroke-width="2" fill-rule="nonzero"></path>
                            <path d="M523.120875,192.810811 C531.570927,207.070732 542.011431,223.039825 554.299842,239.750787 C571.240942,262.788924 589.74814,284.53662 609.659801,303.972348 C661.973398,355.035534 717.950551,384.621622 776.286696,384.621622 C886.413524,384.621622 976,298.564324 976,192.810811 C976,87.0572972 886.413524,1 776.286696,1 C717.950551,1 661.973398,30.5860874 609.659801,81.6492735 C589.74814,101.085002 571.240942,122.832698 554.299842,145.870835 C542.011431,162.581797 531.570927,178.55089 523.120875,192.810811 Z" id="Path" stroke="#7048E8" stroke-width="2" fill-rule="nonzero"></path>
                        </g>
                        <g id="i-2" transform="translate(92.000000, 0.000000)">
                            <path d="M452.841246,328.551283 C444.409499,314.167826 433.991045,298.059829 421.728188,281.203389 C404.825649,257.969272 386.360595,236.036595 366.494322,216.435597 C314.301022,164.939234 258.45334,135.102564 200.254089,135.102564 C90.3827758,135.102564 1,221.892138 1,328.551282 C1,435.210426 90.3827758,522 200.254089,522 C258.46057,522 314.309409,492.163531 366.500461,440.666984 C386.365591,421.066199 404.829048,399.133823 421.730473,375.899209 C433.991351,359.044015 444.406945,342.939161 452.841246,328.551283 Z" id="Path" stroke="#7950F2" stroke-width="2" fill-rule="nonzero"></path>
                            <path d="M455.158755,194.448718 C463.590501,208.832174 474.008955,224.940171 486.271812,241.796611 C503.174351,265.030728 521.639405,286.963405 541.505678,306.564403 C593.698978,358.060766 649.54666,387.897436 707.745911,387.897436 C817.617224,387.897436 907,301.107862 907,194.448718 C907,87.789574 817.617224,1 707.745911,1 C649.54666,1 593.698978,30.8366703 541.505678,82.3330324 C521.639405,101.934031 503.174351,123.866708 486.271812,147.100825 C474.008955,163.957265 463.590501,180.065261 455.158755,194.448718 Z" id="Path" stroke="#FF922B" stroke-width="2" fill-rule="nonzero"></path>
                        </g>
                        <g id="Path-4" transform="translate(196.000000, 64.000000)">
                            <mask id="mask-4" fill="white">
                                <use xlink:href="#path-3"></use>
                            </mask>
                            <g id="Rectangle"></g>
                        </g>
                    </g>
                </g>
            </g>
        </g>
    </g>
</svg>