<?xml version="1.0" encoding="UTF-8"?>
<svg width="50px" height="12px" viewBox="0 0 50 12" version="1.1" xmlns="http://www.w3.org/2000/svg" xmlns:xlink="http://www.w3.org/1999/xlink">
    <!-- Generator: Sketch 55.2 (78181) - https://sketchapp.com -->
    <title>inSeoul</title>
    <desc>Created with Sketch.</desc>
    <g id="Page-1" stroke="none" stroke-width="1" fill="none" fill-rule="evenodd">
        <g id="Web-Landing" transform="translate(-923.000000, -5233.000000)" fill="#FFFFFF" fill-rule="nonzero">
            <path d="M923.46,5244 L923.46,5236.58 L924.818,5236.58 L924.818,5244 L923.46,5244 Z M923.404,5235.222 L923.404,5233.78 L924.874,5233.78 L924.874,5235.222 L923.404,5235.222 Z M927.114,5244 L927.114,5236.58 L928.444,5236.58 L928.444,5237.294 L928.472,5237.294 C928.668001,5237.03267 928.952665,5236.81333 929.326,5236.636 C929.699335,5236.45867 930.091331,5236.37 930.502,5236.37 C931.314004,5236.37 931.962664,5236.61733 932.448,5237.112 C932.933336,5237.60667 933.176,5238.28333 933.176,5239.142 L933.176,5244 L931.804,5244 L931.804,5239.534 C931.804,5238.26466 931.281339,5237.63 930.236,5237.63 C929.703997,5237.63 929.277002,5237.78167 928.955,5238.085 C928.632998,5238.38833 928.472,5238.806 928.472,5239.338 L928.472,5244 L927.114,5244 Z M938.356,5240.654 L939.826,5240.36 C939.956667,5241.24667 940.199332,5241.89066 940.554,5242.292 C940.908668,5242.69334 941.491996,5242.894 942.304,5242.894 C942.96667,5242.894 943.477665,5242.754 943.837,5242.474 C944.196335,5242.194 944.376,5241.83467 944.376,5241.396 C944.376,5240.95733 944.212668,5240.612 943.886,5240.36 C943.559332,5240.108 942.836006,5239.80467 941.716,5239.45 C940.651995,5239.114 939.893669,5238.729 939.441,5238.295 C938.988331,5237.861 938.762,5237.308 938.762,5236.636 C938.762,5235.908 939.046664,5235.285 939.616,5234.767 C940.185336,5234.249 940.955328,5233.99 941.926,5233.99 C942.840671,5233.99 943.61533,5234.21866 944.25,5234.676 C944.88467,5235.13334 945.271999,5235.80533 945.412,5236.692 L944.012,5237 C943.890666,5236.45866 943.671335,5236.041 943.354,5235.747 C943.036665,5235.453 942.56067,5235.306 941.926,5235.306 C941.34733,5235.306 940.908668,5235.432 940.61,5235.684 C940.311332,5235.936 940.162,5236.25333 940.162,5236.636 C940.162,5236.98134 940.311332,5237.259 940.61,5237.469 C940.908668,5237.679 941.580661,5237.95666 942.626,5238.302 C943.848673,5238.71267 944.676998,5239.13266 945.111,5239.562 C945.545002,5239.99134 945.762,5240.57466 945.762,5241.312 C945.762,5242.14267 945.45167,5242.83333 944.831,5243.384 C944.21033,5243.93467 943.363339,5244.21 942.29,5244.21 C941.132661,5244.21 940.22267,5243.909 939.56,5243.307 C938.89733,5242.705 938.496001,5241.82067 938.356,5240.654 Z M952.412,5241.634 L953.434,5242.404 C953.144665,5242.92667 952.743336,5243.35833 952.23,5243.699 C951.716664,5244.03967 951.091337,5244.21 950.354,5244.21 C949.327328,5244.21 948.492003,5243.853 947.848,5243.139 C947.203997,5242.425 946.882,5241.47534 946.882,5240.29 C946.882,5239.10466 947.201663,5238.155 947.841,5237.441 C948.480337,5236.727 949.294662,5236.37 950.284,5236.37 C951.273338,5236.37 952.080664,5236.72233 952.706,5237.427 C953.331336,5238.13167 953.644,5239.08599 953.644,5240.29 L953.644,5240.696 L948.268,5240.696 C948.286667,5241.35867 948.470998,5241.907 948.821,5242.341 C949.171002,5242.775 949.672663,5242.992 950.326,5242.992 C950.634002,5242.992 950.906999,5242.95 951.145,5242.866 C951.383001,5242.782 951.588332,5242.65367 951.761,5242.481 C951.933668,5242.30833 952.057333,5242.17067 952.132,5242.068 C952.206667,5241.96533 952.299999,5241.82067 952.412,5241.634 Z M948.282,5239.632 L952.286,5239.632 C952.258,5239.06266 952.080668,5238.57967 951.754,5238.183 C951.427332,5237.78633 950.937337,5237.588 950.284,5237.588 C949.658664,5237.588 949.173335,5237.80033 948.828,5238.225 C948.482665,5238.64967 948.300667,5239.11866 948.282,5239.632 Z M958.306,5242.978 C958.903336,5242.978 959.388665,5242.74234 959.762,5242.271 C960.135335,5241.79966 960.322,5241.13934 960.322,5240.29 C960.322,5239.45 960.135335,5238.79434 959.762,5238.323 C959.388665,5237.85166 958.903336,5237.616 958.306,5237.616 C957.689997,5237.616 957.193002,5237.847 956.815,5238.309 C956.436998,5238.771 956.248,5239.43133 956.248,5240.29 C956.248,5241.14867 956.439331,5241.81133 956.822,5242.278 C957.204669,5242.74467 957.69933,5242.978 958.306,5242.978 Z M958.306,5244.21 C957.316662,5244.21 956.502337,5243.86467 955.863,5243.174 C955.223663,5242.48333 954.904,5241.52201 954.904,5240.29 C954.904,5239.07666 955.230663,5238.12 955.884,5237.42 C956.537337,5236.72 957.344662,5236.37 958.306,5236.37 C959.248671,5236.37 960.04433,5236.72 960.693,5237.42 C961.34167,5238.12 961.666,5239.07666 961.666,5240.29 C961.666,5241.52201 961.351003,5242.48333 960.721,5243.174 C960.090997,5243.86467 959.286005,5244.21 958.306,5244.21 Z M963.346,5241.396 L963.346,5236.58 L964.704,5236.58 L964.704,5241.214 C964.704,5241.83934 964.818332,5242.28033 965.047,5242.537 C965.275668,5242.79367 965.660664,5242.922 966.202,5242.922 C966.715336,5242.922 967.123665,5242.768 967.427,5242.46 C967.730335,5242.152 967.882,5241.71334 967.882,5241.144 L967.882,5236.58 L969.24,5236.58 L969.24,5244 L967.924,5244 L967.924,5243.286 L967.896,5243.286 C967.429331,5243.902 966.762004,5244.21 965.894,5244.21 C965.072663,5244.21 964.442669,5243.96967 964.004,5243.489 C963.565331,5243.00833 963.346,5242.31067 963.346,5241.396 Z M971.48,5244 L971.48,5233.78 L972.88,5233.78 L972.88,5244 L971.48,5244 Z" id="inSeoul"></path>
        </g>
    </g>
</svg>