<?xml version="1.0" encoding="UTF-8"?>
<svg width="261px" height="15px" viewBox="0 0 261 15" version="1.1" xmlns="http://www.w3.org/2000/svg" xmlns:xlink="http://www.w3.org/1999/xlink">
    <!-- Generator: Sketch 55.2 (78181) - https://sketchapp.com -->
    <title>Group 10</title>
    <desc>Created with Sketch.</desc>
    <g id="Page-1" stroke="none" stroke-width="1" fill="none" fill-rule="evenodd">
        <g id="Web-Landing" transform="translate(-55.000000, -5233.000000)" fill-rule="nonzero">
            <g id="Group-10" transform="translate(55.000000, 5230.000000)">
                <path d="M31.66,12.712 L33.242,12.712 C34.1566712,12.712 34.8659975,12.4343361 35.37,11.879 C35.8740025,11.3236639 36.126,10.3926732 36.126,9.086 C36.126,7.90066074 35.8740025,7.00700301 35.37,6.405 C34.8659975,5.80299699 34.184671,5.502 33.326,5.502 L31.66,5.502 L31.66,12.712 Z M30.26,14 L30.26,4.2 L33.396,4.2 C33.9560028,4.2 34.4833309,4.29799902 34.978,4.494 C35.4726691,4.69000098 35.9206647,4.97933142 36.322,5.362 C36.7233353,5.74466858 37.0429988,6.25566347 37.281,6.895 C37.5190012,7.53433653 37.638,8.26466256 37.638,9.086 C37.638,9.98200448 37.5166679,10.76133 37.274,11.424 C37.0313321,12.08667 36.7000021,12.5976649 36.28,12.957 C35.8599979,13.3163351 35.4050024,13.5799992 34.915,13.748 C34.4249976,13.9160008 33.8906696,14 33.312,14 L30.26,14 Z M44.428,11.634 L45.45,12.404 C45.1606652,12.9266693 44.7593359,13.3583316 44.246,13.699 C43.7326641,14.0396684 43.107337,14.21 42.37,14.21 C41.3433282,14.21 40.5080032,13.8530036 39.864,13.139 C39.2199968,12.4249964 38.898,11.4753393 38.898,10.29 C38.898,9.10466074 39.2176635,8.15500357 39.857,7.441 C40.4963365,6.72699643 41.3106617,6.37 42.3,6.37 C43.2893383,6.37 44.0966635,6.72232981 44.722,7.427 C45.3473365,8.13167019 45.66,9.08599398 45.66,10.29 L45.66,10.696 L40.284,10.696 C40.3026668,11.35867 40.4869982,11.9069978 40.837,12.341 C41.1870018,12.7750022 41.6886634,12.992 42.342,12.992 C42.6500015,12.992 42.9229988,12.9500004 43.161,12.866 C43.3990012,12.7819996 43.6043325,12.6536675 43.777,12.481 C43.9496675,12.3083325 44.073333,12.1706672 44.148,12.068 C44.222667,11.9653328 44.3159994,11.8206676 44.428,11.634 Z M40.298,9.632 L44.302,9.632 C44.2739999,9.06266382 44.0966683,8.57966865 43.77,8.183 C43.4433317,7.78633135 42.9533366,7.588 42.3,7.588 C41.6746635,7.588 41.1893351,7.80033121 40.844,8.225 C40.4986649,8.64966879 40.3166668,9.1186641 40.298,9.632 Z M46.85,11.508 L48.11,11.228 C48.2500007,12.4413394 48.8893276,13.048 50.028,13.048 C50.569336,13.048 50.9846652,12.950001 51.274,12.754 C51.5633348,12.557999 51.708,12.3013349 51.708,11.984 C51.708,11.6573317 51.572668,11.4123341 51.302,11.249 C51.031332,11.0856658 50.466671,10.8826679 49.608,10.64 C48.7119955,10.3973321 48.0726686,10.1150016 47.69,9.793 C47.3073314,9.47099839 47.116,9.03466942 47.116,8.484 C47.116,7.91466382 47.3516643,7.4200021 47.823,7 C48.2943357,6.5799979 48.9406626,6.37 49.762,6.37 C50.5926708,6.37 51.2506642,6.56599804 51.736,6.958 C52.2213358,7.35000196 52.5526658,7.8726634 52.73,8.526 L51.554,8.848 C51.2646652,7.9613289 50.6720045,7.518 49.776,7.518 C49.3279978,7.518 48.9826679,7.60899909 48.74,7.791 C48.4973321,7.97300091 48.376,8.18999874 48.376,8.442 C48.376,8.7220014 48.5019987,8.9319993 48.754,9.072 C49.0060013,9.2120007 49.5939954,9.41266536 50.518,9.674 C51.4420046,9.93533464 52.0789982,10.2409983 52.429,10.591 C52.7790017,10.9410017 52.954,11.4099971 52.954,11.998 C52.9633334,12.5860029 52.7253358,13.1016645 52.24,13.545 C51.7546642,13.9883356 51.0313381,14.21 50.07,14.21 C49.0713283,14.21 48.3060027,13.9533359 47.774,13.44 C47.2419973,12.9266641 46.9340004,12.2826705 46.85,11.508 Z M54.704,14 L54.704,6.58 L56.062,6.58 L56.062,14 L54.704,14 Z M54.648,5.222 L54.648,3.78 L56.118,3.78 L56.118,5.222 L54.648,5.222 Z M58.414,15.4 L59.506,14.77 C59.702001,15.2086689 59.9423319,15.5493321 60.227,15.792 C60.5116681,16.0346679 60.9013309,16.156 61.396,16.156 C61.9466694,16.156 62.3806651,15.9973349 62.698,15.68 C63.0153349,15.3626651 63.174,14.9053363 63.174,14.308 L63.174,13.342 L63.146,13.342 C62.7073311,13.9206696 62.0446711,14.21 61.158,14.21 C60.1873285,14.21 59.3963364,13.8576702 58.785,13.153 C58.1736636,12.4483298 57.868,11.494006 57.868,10.29 C57.868,9.10466074 58.1829968,8.15500357 58.813,7.441 C59.4430031,6.72699643 60.2199954,6.37 61.144,6.37 C62.002671,6.37 62.6839975,6.67799692 63.188,7.294 L63.216,7.294 L63.216,6.58 L64.532,6.58 L64.532,14.07 C64.532,15.1433387 64.2520028,15.9599972 63.692,16.52 C63.1319972,17.0800028 62.3713381,17.36 61.41,17.36 C60.6539962,17.36 60.0193359,17.1803351 59.506,16.821 C58.9926641,16.4616649 58.6286677,15.9880029 58.414,15.4 Z M63.174,11.396 L63.174,9.324 C63.174,8.87599776 63.008335,8.47933506 62.677,8.134 C62.345665,7.78866494 61.909336,7.616 61.368,7.616 C60.6959966,7.616 60.1710019,7.849331 59.793,8.316 C59.4149981,8.782669 59.226,9.44066242 59.226,10.29 C59.226,11.1393376 59.4149981,11.7996643 59.793,12.271 C60.1710019,12.7423357 60.6959966,12.978 61.368,12.978 C61.8906693,12.978 62.3223316,12.8216682 62.663,12.509 C63.0036684,12.1963318 63.174,11.8253355 63.174,11.396 Z M66.702,14 L66.702,6.58 L68.032,6.58 L68.032,7.294 L68.06,7.294 C68.256001,7.03266536 68.5406648,6.81333422 68.914,6.636 C69.2873352,6.45866578 69.6793313,6.37 70.09,6.37 C70.9020041,6.37 71.5506642,6.61733086 72.036,7.112 C72.5213358,7.60666914 72.764,8.28332904 72.764,9.142 L72.764,14 L71.392,14 L71.392,9.534 C71.392,8.26466032 70.8693386,7.63 69.824,7.63 C69.2919973,7.63 68.8650016,7.78166515 68.543,8.085 C68.2209984,8.38833485 68.06,8.80599734 68.06,9.338 L68.06,14 L66.702,14 Z M79.974,11.634 L80.996,12.404 C80.7066652,12.9266693 80.3053359,13.3583316 79.792,13.699 C79.2786641,14.0396684 78.653337,14.21 77.916,14.21 C76.8893282,14.21 76.0540032,13.8530036 75.41,13.139 C74.7659968,12.4249964 74.444,11.4753393 74.444,10.29 C74.444,9.10466074 74.7636635,8.15500357 75.403,7.441 C76.0423365,6.72699643 76.8566617,6.37 77.846,6.37 C78.8353383,6.37 79.6426635,6.72232981 80.268,7.427 C80.8933365,8.13167019 81.206,9.08599398 81.206,10.29 L81.206,10.696 L75.83,10.696 C75.8486668,11.35867 76.0329982,11.9069978 76.383,12.341 C76.7330017,12.7750022 77.2346634,12.992 77.888,12.992 C78.1960015,12.992 78.4689988,12.9500004 78.707,12.866 C78.9450012,12.7819996 79.1503325,12.6536675 79.323,12.481 C79.4956675,12.3083325 79.619333,12.1706672 79.694,12.068 C79.768667,11.9653328 79.8619994,11.8206676 79.974,11.634 Z M75.844,9.632 L79.848,9.632 C79.8199999,9.06266382 79.6426683,8.57966865 79.316,8.183 C78.9893317,7.78633135 78.4993366,7.588 77.846,7.588 C77.2206635,7.588 76.7353351,7.80033121 76.39,8.225 C76.0446649,8.64966879 75.8626668,9.1186641 75.844,9.632 Z M87.702,11.354 L87.702,9.366 C87.702,8.90866438 87.5386683,8.50266844 87.212,8.148 C86.8853317,7.79333156 86.4466694,7.616 85.896,7.616 C85.23333,7.616 84.7223351,7.84699769 84.363,8.309 C84.0036649,8.77100231 83.824,9.43132904 83.824,10.29 C83.824,11.148671 84.0013316,11.811331 84.356,12.278 C84.7106684,12.744669 85.2239966,12.978 85.896,12.978 C86.4280027,12.978 86.8619983,12.8170016 87.198,12.495 C87.5340017,12.1729984 87.702,11.7926689 87.702,11.354 Z M87.814,14 L87.814,13.286 L87.786,13.286 C87.244664,13.9020031 86.544671,14.21 85.686,14.21 C84.7059951,14.21 83.9243362,13.8553369 83.341,13.146 C82.7576638,12.4366631 82.466,11.4846726 82.466,10.29 C82.466,9.10466074 82.7763302,8.15500357 83.397,7.441 C84.0176698,6.72699643 84.7759955,6.37 85.672,6.37 C86.4746707,6.37 87.1419973,6.67799692 87.674,7.294 L87.702,7.294 L87.702,3.78 L89.06,3.78 L89.06,14 L87.814,14 Z M99.07,14 L99.07,13.216 L99.042,13.216 C98.9393328,13.4213344 98.6990019,13.6383322 98.321,13.867 C97.9429981,14.0956678 97.4553363,14.21 96.858,14.21 C96.0086624,14.21 95.3716688,14.007002 94.947,13.601 C94.5223312,13.194998 94.31,12.6840031 94.31,12.068 C94.31,11.4426635 94.4989981,10.9573351 94.877,10.612 C95.2550019,10.2666649 95.8966621,9.98200112 96.802,9.758 C97.6046707,9.55266564 98.1483319,9.37533408 98.433,9.226 C98.7176681,9.07666592 98.86,8.85733478 98.86,8.568 C98.86,8.27866522 98.7386679,8.03833429 98.496,7.847 C98.2533321,7.65566571 97.8893358,7.56 97.404,7.56 C96.4799954,7.56 95.9060011,8.026662 95.682,8.96 L94.492,8.54 C94.6226673,7.89599678 94.9353309,7.37333534 95.43,6.972 C95.9246691,6.57066466 96.5733293,6.37 97.376,6.37 C98.2440043,6.37 98.941664,6.59166445 99.469,7.035 C99.996336,7.47833555 100.26,8.166662 100.26,9.1 L100.26,14 L99.07,14 Z M97.11,10.752 C96.5313304,10.9106675 96.1416677,11.0833324 95.941,11.27 C95.7403323,11.4566676 95.64,11.6946652 95.64,11.984 C95.64,12.6653367 96.0879955,13.006 96.984,13.006 C97.6093365,13.006 98.0899983,12.870668 98.426,12.6 C98.7620017,12.329332 98.93,11.998002 98.93,11.606 L98.93,9.94 L98.902,9.94 C98.8646665,10.0240004 98.808667,10.096333 98.734,10.157 C98.659333,10.217667 98.486668,10.3016661 98.216,10.409 C97.945332,10.5163339 97.576669,10.6306661 97.11,10.752 Z M102.36,14 L102.36,6.58 L103.69,6.58 L103.69,7.294 L103.718,7.294 C103.914001,7.03266536 104.198665,6.81333422 104.572,6.636 C104.945335,6.45866578 105.337331,6.37 105.748,6.37 C106.560004,6.37 107.208664,6.61733086 107.694,7.112 C108.179336,7.60666914 108.422,8.28332904 108.422,9.142 L108.422,14 L107.05,14 L107.05,9.534 C107.05,8.26466032 106.527339,7.63 105.482,7.63 C104.949997,7.63 104.523002,7.78166515 104.201,8.085 C103.878998,8.38833485 103.718,8.80599734 103.718,9.338 L103.718,14 L102.36,14 Z M115.338,11.354 L115.338,9.366 C115.338,8.90866438 115.174668,8.50266844 114.848,8.148 C114.521332,7.79333156 114.082669,7.616 113.532,7.616 C112.86933,7.616 112.358335,7.84699769 111.999,8.309 C111.639665,8.77100231 111.46,9.43132904 111.46,10.29 C111.46,11.148671 111.637332,11.811331 111.992,12.278 C112.346668,12.744669 112.859997,12.978 113.532,12.978 C114.064003,12.978 114.497998,12.8170016 114.834,12.495 C115.170002,12.1729984 115.338,11.7926689 115.338,11.354 Z M115.45,14 L115.45,13.286 L115.422,13.286 C114.880664,13.9020031 114.180671,14.21 113.322,14.21 C112.341995,14.21 111.560336,13.8553369 110.977,13.146 C110.393664,12.4366631 110.102,11.4846726 110.102,10.29 C110.102,9.10466074 110.41233,8.15500357 111.033,7.441 C111.65367,6.72699643 112.411996,6.37 113.308,6.37 C114.110671,6.37 114.777997,6.67799692 115.31,7.294 L115.338,7.294 L115.338,3.78 L116.696,3.78 L116.696,14 L115.45,14 Z M122.646,14 L122.646,4.2 L124.046,4.2 L124.046,14 L122.646,14 Z M126.496,14 L126.496,6.58 L127.728,6.58 L127.728,7.294 L127.756,7.294 C127.933334,7.02333198 128.192332,6.80166753 128.533,6.629 C128.873668,6.45633247 129.235331,6.37 129.618,6.37 C130.056669,6.37 130.441665,6.47033233 130.773,6.671 C131.104335,6.87166767 131.358666,7.12133184 131.536,7.42 L131.564,7.42 C131.760001,7.13066522 132.039998,6.88333436 132.404,6.678 C132.768002,6.47266564 133.173998,6.37 133.622,6.37 C134.443337,6.37 135.091998,6.603331 135.568,7.07 C136.044002,7.536669 136.282,8.16199608 136.282,8.946 L136.282,14 L134.994,14 L134.994,9.296 C134.994,8.18532778 134.513338,7.63 133.552,7.63 C133.075998,7.63 132.707335,7.7699986 132.446,8.05 C132.184665,8.3300014 132.054,8.71266424 132.054,9.198 L132.054,14 L130.766,14 L130.766,9.296 C130.766,8.18532778 130.285338,7.63 129.324,7.63 C128.829331,7.63 128.456001,7.77699853 128.204,8.071 C127.951999,8.36500147 127.826,8.74066438 127.826,9.198 L127.826,14 L126.496,14 Z M139.81,9.324 L139.81,11.396 C139.81,11.8253355 139.980332,12.1963318 140.321,12.509 C140.661668,12.8216682 141.093331,12.978 141.616,12.978 C142.288003,12.978 142.812998,12.7423357 143.191,12.271 C143.569002,11.7996643 143.758,11.1393376 143.758,10.29 C143.758,9.44066242 143.569002,8.782669 143.191,8.316 C142.812998,7.849331 142.288003,7.616 141.616,7.616 C141.074664,7.616 140.638335,7.78866494 140.307,8.134 C139.975665,8.47933506 139.81,8.87599776 139.81,9.324 Z M138.452,17.15 L138.452,6.58 L139.754,6.58 L139.754,7.294 L139.782,7.294 C139.875334,7.17266606 139.996666,7.05133394 140.146,6.93 C140.295334,6.80866606 140.528665,6.68500063 140.846,6.559 C141.163335,6.43299937 141.503998,6.37 141.868,6.37 C142.773338,6.37 143.540997,6.72699643 144.171,7.441 C144.801003,8.15500357 145.116,9.10466074 145.116,10.29 C145.116,11.494006 144.81267,12.4483298 144.206,13.153 C143.59933,13.8576702 142.824671,14.21 141.882,14.21 C141.377997,14.21 140.948668,14.1073344 140.594,13.902 C140.239332,13.6966656 139.987334,13.4913344 139.838,13.286 L139.81,13.286 L139.81,17.15 L138.452,17.15 Z M146.866,14 L146.866,3.78 L148.266,3.78 L148.266,14 L146.866,14 Z M155.546,11.634 L156.568,12.404 C156.278665,12.9266693 155.877336,13.3583316 155.364,13.699 C154.850664,14.0396684 154.225337,14.21 153.488,14.21 C152.461328,14.21 151.626003,13.8530036 150.982,13.139 C150.337997,12.4249964 150.016,11.4753393 150.016,10.29 C150.016,9.10466074 150.335663,8.15500357 150.975,7.441 C151.614337,6.72699643 152.428662,6.37 153.418,6.37 C154.407338,6.37 155.214664,6.72232981 155.84,7.427 C156.465336,8.13167019 156.778,9.08599398 156.778,10.29 L156.778,10.696 L151.402,10.696 C151.420667,11.35867 151.604998,11.9069978 151.955,12.341 C152.305002,12.7750022 152.806663,12.992 153.46,12.992 C153.768002,12.992 154.040999,12.9500004 154.279,12.866 C154.517001,12.7819996 154.722332,12.6536675 154.895,12.481 C155.067668,12.3083325 155.191333,12.1706672 155.266,12.068 C155.340667,11.9653328 155.433999,11.8206676 155.546,11.634 Z M151.416,9.632 L155.42,9.632 C155.392,9.06266382 155.214668,8.57966865 154.888,8.183 C154.561332,7.78633135 154.071337,7.588 153.418,7.588 C152.792664,7.588 152.307335,7.80033121 151.962,8.225 C151.616665,8.64966879 151.434667,9.1186641 151.416,9.632 Z M158.528,14 L158.528,6.58 L159.76,6.58 L159.76,7.294 L159.788,7.294 C159.965334,7.02333198 160.224332,6.80166753 160.565,6.629 C160.905668,6.45633247 161.267331,6.37 161.65,6.37 C162.088669,6.37 162.473665,6.47033233 162.805,6.671 C163.136335,6.87166767 163.390666,7.12133184 163.568,7.42 L163.596,7.42 C163.792001,7.13066522 164.071998,6.88333436 164.436,6.678 C164.800002,6.47266564 165.205998,6.37 165.654,6.37 C166.475337,6.37 167.123998,6.603331 167.6,7.07 C168.076002,7.536669 168.314,8.16199608 168.314,8.946 L168.314,14 L167.026,14 L167.026,9.296 C167.026,8.18532778 166.545338,7.63 165.584,7.63 C165.107998,7.63 164.739335,7.7699986 164.478,8.05 C164.216665,8.3300014 164.086,8.71266424 164.086,9.198 L164.086,14 L162.798,14 L162.798,9.296 C162.798,8.18532778 162.317338,7.63 161.356,7.63 C160.861331,7.63 160.488001,7.77699853 160.236,8.071 C159.983999,8.36500147 159.858,8.74066438 159.858,9.198 L159.858,14 L158.528,14 Z M175.524,11.634 L176.546,12.404 C176.256665,12.9266693 175.855336,13.3583316 175.342,13.699 C174.828664,14.0396684 174.203337,14.21 173.466,14.21 C172.439328,14.21 171.604003,13.8530036 170.96,13.139 C170.315997,12.4249964 169.994,11.4753393 169.994,10.29 C169.994,9.10466074 170.313663,8.15500357 170.953,7.441 C171.592337,6.72699643 172.406662,6.37 173.396,6.37 C174.385338,6.37 175.192664,6.72232981 175.818,7.427 C176.443336,8.13167019 176.756,9.08599398 176.756,10.29 L176.756,10.696 L171.38,10.696 C171.398667,11.35867 171.582998,11.9069978 171.933,12.341 C172.283002,12.7750022 172.784663,12.992 173.438,12.992 C173.746002,12.992 174.018999,12.9500004 174.257,12.866 C174.495001,12.7819996 174.700332,12.6536675 174.873,12.481 C175.045668,12.3083325 175.169333,12.1706672 175.244,12.068 C175.318667,11.9653328 175.411999,11.8206676 175.524,11.634 Z M171.394,9.632 L175.398,9.632 C175.37,9.06266382 175.192668,8.57966865 174.866,8.183 C174.539332,7.78633135 174.049337,7.588 173.396,7.588 C172.770664,7.588 172.285335,7.80033121 171.94,8.225 C171.594665,8.64966879 171.412667,9.1186641 171.394,9.632 Z M178.506,14 L178.506,6.58 L179.836,6.58 L179.836,7.294 L179.864,7.294 C180.060001,7.03266536 180.344665,6.81333422 180.718,6.636 C181.091335,6.45866578 181.483331,6.37 181.894,6.37 C182.706004,6.37 183.354664,6.61733086 183.84,7.112 C184.325336,7.60666914 184.568,8.28332904 184.568,9.142 L184.568,14 L183.196,14 L183.196,9.534 C183.196,8.26466032 182.673339,7.63 181.628,7.63 C181.095997,7.63 180.669002,7.78166515 180.347,8.085 C180.024998,8.38833485 179.864,8.80599734 179.864,9.338 L179.864,14 L178.506,14 Z M187.06,11.676 L187.06,7.77 L185.968,7.77 L185.968,6.58 L187.088,6.58 L187.088,4.76 L188.39,4.76 L188.39,6.58 L190.238,6.58 L190.238,7.77 L188.404,7.77 L188.404,11.536 C188.404,11.9560021 188.466999,12.2523325 188.593,12.425 C188.719001,12.5976675 188.973331,12.684 189.356,12.684 L189.916,12.684 L189.916,14 L189.258,14 C188.455329,14 187.888335,13.8086686 187.557,13.426 C187.225665,13.0433314 187.06,12.4600039 187.06,11.676 Z M196.958,11.634 L197.98,12.404 C197.690665,12.9266693 197.289336,13.3583316 196.776,13.699 C196.262664,14.0396684 195.637337,14.21 194.9,14.21 C193.873328,14.21 193.038003,13.8530036 192.394,13.139 C191.749997,12.4249964 191.428,11.4753393 191.428,10.29 C191.428,9.10466074 191.747663,8.15500357 192.387,7.441 C193.026337,6.72699643 193.840662,6.37 194.83,6.37 C195.819338,6.37 196.626664,6.72232981 197.252,7.427 C197.877336,8.13167019 198.19,9.08599398 198.19,10.29 L198.19,10.696 L192.814,10.696 C192.832667,11.35867 193.016998,11.9069978 193.367,12.341 C193.717002,12.7750022 194.218663,12.992 194.872,12.992 C195.180002,12.992 195.452999,12.9500004 195.691,12.866 C195.929001,12.7819996 196.134332,12.6536675 196.307,12.481 C196.479668,12.3083325 196.603333,12.1706672 196.678,12.068 C196.752667,11.9653328 196.845999,11.8206676 196.958,11.634 Z M192.828,9.632 L196.832,9.632 C196.804,9.06266382 196.626668,8.57966865 196.3,8.183 C195.973332,7.78633135 195.483337,7.588 194.83,7.588 C194.204664,7.588 193.719335,7.80033121 193.374,8.225 C193.028665,8.64966879 192.846667,9.1186641 192.828,9.632 Z M204.686,11.354 L204.686,9.366 C204.686,8.90866438 204.522668,8.50266844 204.196,8.148 C203.869332,7.79333156 203.430669,7.616 202.88,7.616 C202.21733,7.616 201.706335,7.84699769 201.347,8.309 C200.987665,8.77100231 200.808,9.43132904 200.808,10.29 C200.808,11.148671 200.985332,11.811331 201.34,12.278 C201.694668,12.744669 202.207997,12.978 202.88,12.978 C203.412003,12.978 203.845998,12.8170016 204.182,12.495 C204.518002,12.1729984 204.686,11.7926689 204.686,11.354 Z M204.798,14 L204.798,13.286 L204.77,13.286 C204.228664,13.9020031 203.528671,14.21 202.67,14.21 C201.689995,14.21 200.908336,13.8553369 200.325,13.146 C199.741664,12.4366631 199.45,11.4846726 199.45,10.29 C199.45,9.10466074 199.76033,8.15500357 200.381,7.441 C201.00167,6.72699643 201.759996,6.37 202.656,6.37 C203.458671,6.37 204.125997,6.67799692 204.658,7.294 L204.686,7.294 L204.686,3.78 L206.044,3.78 L206.044,14 L204.798,14 Z M213.142,9.366 L213.142,11.354 C213.142,11.7926689 213.309998,12.1729984 213.646,12.495 C213.982002,12.8170016 214.415997,12.978 214.948,12.978 C215.620003,12.978 216.133332,12.744669 216.488,12.278 C216.842668,11.811331 217.02,11.148671 217.02,10.29 C217.02,9.43132904 216.840335,8.77100231 216.481,8.309 C216.121665,7.84699769 215.61067,7.616 214.948,7.616 C214.397331,7.616 213.958668,7.79333156 213.632,8.148 C213.305332,8.50266844 213.142,8.90866438 213.142,9.366 Z M211.784,14 L211.784,3.78 L213.142,3.78 L213.142,7.294 L213.17,7.294 C213.702003,6.67799692 214.373996,6.37 215.186,6.37 C216.110005,6.37 216.872997,6.72932974 217.475,7.448 C218.077003,8.16667026 218.378,9.11399412 218.378,10.29 C218.378,11.4846726 218.086336,12.4366631 217.503,13.146 C216.919664,13.8553369 216.138005,14.21 215.158,14.21 C214.299329,14.21 213.599336,13.9020031 213.058,13.286 L213.03,13.286 L213.03,14 L211.784,14 Z M220.59,17.15 L222.018,13.482 L219.218,6.58 L220.646,6.58 L222.676,11.886 L224.692,6.58 L226.092,6.58 L221.92,17.15 L220.59,17.15 Z M233.05,14 L233.05,5.502 L230.082,5.502 L230.082,4.2 L237.432,4.2 L237.432,5.502 L234.45,5.502 L234.45,14 L233.05,14 Z M241.744,12.978 C242.341336,12.978 242.826665,12.7423357 243.2,12.271 C243.573335,11.7996643 243.76,11.1393376 243.76,10.29 C243.76,9.4499958 243.573335,8.79433569 243.2,8.323 C242.826665,7.85166431 242.341336,7.616 241.744,7.616 C241.127997,7.616 240.631002,7.84699769 240.253,8.309 C239.874998,8.77100231 239.686,9.43132904 239.686,10.29 C239.686,11.148671 239.877331,11.811331 240.26,12.278 C240.642669,12.744669 241.13733,12.978 241.744,12.978 Z M241.744,14.21 C240.754662,14.21 239.940337,13.8646701 239.301,13.174 C238.661663,12.4833299 238.342,11.5220062 238.342,10.29 C238.342,9.0766606 238.668663,8.1200035 239.322,7.42 C239.975337,6.7199965 240.782662,6.37 241.744,6.37 C242.686671,6.37 243.48233,6.7199965 244.131,7.42 C244.77967,8.1200035 245.104,9.0766606 245.104,10.29 C245.104,11.5220062 244.789003,12.4833299 244.159,13.174 C243.528997,13.8646701 242.724005,14.21 241.744,14.21 Z M246.854,14 L246.854,6.58 L248.184,6.58 L248.184,7.294 L248.212,7.294 C248.408001,7.03266536 248.692665,6.81333422 249.066,6.636 C249.439335,6.45866578 249.831331,6.37 250.242,6.37 C251.054004,6.37 251.702664,6.61733086 252.188,7.112 C252.673336,7.60666914 252.916,8.28332904 252.916,9.142 L252.916,14 L251.544,14 L251.544,9.534 C251.544,8.26466032 251.021339,7.63 249.976,7.63 C249.443997,7.63 249.017002,7.78166515 248.695,8.085 C248.372998,8.38833485 248.212,8.80599734 248.212,9.338 L248.212,14 L246.854,14 Z M255.548,17.15 L256.976,13.482 L254.176,6.58 L255.604,6.58 L257.634,11.886 L259.65,6.58 L261.05,6.58 L256.878,17.15 L255.548,17.15 Z" id="DesignedandImplementedbyTony" fill="#FFFFFF"></path>
                <g id="i-2" transform="translate(0.000000, 3.000000)" stroke="#FFFFFF">
                    <path d="M9.42494947,7.50000159 C8.1335069,5.27414285 6.3542553,3.5 4.41088302,3.5 C2.25719098,3.5 0.5,5.29265191 0.5,7.5 C0.5,9.70734809 2.25719098,11.5 4.41088302,11.5 C6.35451032,11.5 8.13333096,9.72621966 9.42494947,7.50000159 Z" id="Path"></path>
                    <path d="M10.5750515,4.5 C11.8664939,6.72585799 13.6457452,8.5 15.589117,8.5 C17.742809,8.5 19.5,6.70734809 19.5,4.5 C19.5,2.29265191 17.742809,0.5 15.589117,0.5 C13.6457452,0.5 11.8664939,2.27414201 10.5750515,4.5 Z" id="Path"></path>
                </g>
            </g>
        </g>
    </g>
</svg>