<?xml version="1.0" encoding="UTF-8"?>
<svg width="265px" height="27px" viewBox="0 0 265 27" version="1.1" xmlns="http://www.w3.org/2000/svg" xmlns:xlink="http://www.w3.org/1999/xlink">
    <!-- Generator: Sketch 55.2 (78181) - https://sketchapp.com -->
    <title>Group 9</title>
    <desc>Created with Sketch.</desc>
    <g id="Page-1" stroke="none" stroke-width="1" fill="none" fill-rule="evenodd">
        <g id="Web-Landing" transform="translate(-378.000000, -2121.000000)" fill="#FFFFFF" fill-rule="nonzero">
            <g id="Group-9" transform="translate(378.000000, 2121.000000)">
                <g id="Amathon-Single-lin-Logo-Inversed-Copy">
                    <path d="M66.2172923,20.7980769 L65.3656,18.3565385 L59.6805538,18.3565385 L58.8288615,20.7980769 L55.9756923,20.7980769 L61.3626462,5.93653846 L63.8112615,5.93653846 L69.1769231,20.7980769 L66.2172923,20.7980769 Z M62.5124308,10.1826923 L60.4896615,15.9786923 L64.5564923,15.9786923 L62.5550154,10.1826923 L62.5124308,10.1826923 Z M70.7738462,20.7980769 L70.7738462,9.54576923 L73.3076308,9.54576923 L73.3076308,10.6285385 L73.3502154,10.6285385 C73.6057244,10.2322288 73.978336,9.89961673 74.4680615,9.63069231 C74.9577871,9.36176789 75.4936381,9.22730769 76.0756308,9.22730769 C76.6718184,9.22730769 77.2325102,9.36530631 77.7577231,9.64130769 C78.282936,9.91730907 78.6803884,10.2746901 78.9500923,10.7134615 L78.9926769,10.7134615 C79.2765758,10.2746901 79.6811256,9.91730907 80.2063385,9.64130769 C80.7315513,9.36530631 81.3064379,9.22730769 81.9310154,9.22730769 C83.2795349,9.22730769 84.3476884,9.58115031 85.1355077,10.2888462 C85.923327,10.996542 86.3172308,11.9306865 86.3172308,13.0913077 L86.3172308,20.7980769 L83.7834462,20.7980769 L83.7834462,13.6645385 C83.7834462,13.1125357 83.6237554,12.6596172 83.3043692,12.3057692 C82.984983,11.9519213 82.4917162,11.775 81.8245538,11.775 C81.1999764,11.775 80.7209042,11.9377676 80.3873231,12.2633077 C80.0537419,12.5888478 79.8869538,13.0063821 79.8869538,13.5159231 L79.8869538,20.7980769 L77.3531692,20.7980769 L77.3531692,13.6645385 C77.3531692,13.1266896 77.1828325,12.6773095 76.8421538,12.3163846 C76.5014752,11.9554597 76.0188544,11.775 75.3942769,11.775 C74.7555045,11.775 74.2728837,11.9377676 73.9464,12.2633077 C73.6199163,12.5888478 73.4566769,13.0063821 73.4566769,13.5159231 L73.4566769,20.7980769 L70.7738462,20.7980769 Z M95.6219692,20.7980769 L95.6219692,19.7153077 L95.5793846,19.7153077 L95.4729231,19.8745385 C95.4303382,19.9382311 95.3238778,20.0479223 95.1535385,20.2036154 C94.9831991,20.3593085 94.7915703,20.5008455 94.5786462,20.6282308 C94.365722,20.755616 94.0747301,20.8688457 93.7056615,20.9679231 C93.336593,21.0670005 92.9391406,21.1165385 92.5132923,21.1165385 C91.1505778,21.1165385 90.1321059,20.7945417 89.4578462,20.1505385 C88.7835864,19.5065352 88.4464615,18.7174662 88.4464615,17.7833077 C88.4464615,16.8066874 88.7374535,16.0636179 89.3194462,15.5540769 C89.9014388,15.0445359 90.8879725,14.6199248 92.2790769,14.2802308 C93.5708167,13.9688446 94.3799163,13.7211548 94.7064,13.5371538 C95.0328837,13.3531529 95.1961231,13.0913094 95.1961231,12.7516154 C95.1961231,12.4119214 95.0364324,12.1288473 94.7170462,11.9023846 C94.3976599,11.6759219 93.9185878,11.5626923 93.2798154,11.5626923 C92.5274834,11.5626923 91.9880837,11.7289983 91.6616,12.0616154 C91.3351163,12.3942324 91.0796112,12.8436126 90.8950769,13.4097692 L88.5955077,12.4543846 C88.8652116,11.5060722 89.3904166,10.7311569 90.1711385,10.1296154 C90.9518603,9.52807392 91.9738809,9.22730769 93.2372308,9.22730769 C94.6141402,9.22730769 95.7426212,9.58822716 96.6227077,10.3100769 C97.5027941,11.0319267 97.9428308,12.1500694 97.9428308,13.6645385 L97.9428308,20.7980769 L95.6219692,20.7980769 Z M92.8326769,16.191 C92.1229298,16.360847 91.6580524,16.5625373 91.4380308,16.7960769 C91.2180092,17.0296166 91.108,17.2949985 91.108,17.5922308 C91.108,18.3565423 91.6615945,18.7386923 92.7688,18.7386923 C93.6063016,18.7386923 94.2344184,18.5794631 94.6531692,18.261 C95.07192,17.9425369 95.2812923,17.5497716 95.2812923,17.0826923 L95.2812923,15.1294615 L95.2387077,15.1294615 C95.1819279,15.2426929 95.1216003,15.3311535 95.0577231,15.3948462 C94.9938458,15.4585388 94.7773762,15.5646916 94.4083077,15.7133077 C94.0392392,15.8619238 93.5140342,16.021153 92.8326769,16.191 Z M101.285723,16.7854615 L101.285723,11.8811538 L99.5397538,11.8811538 L99.5397538,9.54576923 L101.3496,9.54576923 L101.3496,6.78576923 L103.968554,6.78576923 L103.968554,9.54576923 L106.821723,9.54576923 L106.821723,11.8811538 L104.011138,11.8811538 L104.011138,16.5306923 C104.011138,17.1251568 104.110502,17.5426911 104.309231,17.7833077 C104.50796,18.0239243 104.91251,18.1442308 105.522892,18.1442308 L106.438462,18.1442308 L106.438462,20.7980769 L105.267385,20.7980769 C103.748526,20.7980769 102.705213,20.4796186 102.137415,19.8426923 C101.569618,19.205766 101.285723,18.1866993 101.285723,16.7854615 Z M108.950954,20.7980769 L108.950954,5.29961538 L111.718954,5.29961538 L111.718954,10.6285385 L111.761538,10.6285385 C111.988658,10.2605366 112.364818,9.93500142 112.890031,9.65192308 C113.415244,9.36884474 113.954643,9.22730769 114.508246,9.22730769 C115.714816,9.22730769 116.672961,9.59530401 117.382708,10.3313077 C118.092455,11.0673114 118.447323,12.0580707 118.447323,13.3036154 L118.447323,20.7980769 L115.679323,20.7980769 L115.679323,13.9193077 C115.679323,13.2965353 115.512535,12.7834636 115.178954,12.3800769 C114.845373,11.9766903 114.345008,11.775 113.677846,11.775 C113.039074,11.775 112.552904,11.9554597 112.219323,12.3163846 C111.885742,12.6773095 111.718954,13.1479202 111.718954,13.7282308 L111.718954,20.7980769 L108.950954,20.7980769 Z M123.983323,17.7408462 C124.437561,18.3353107 125.062129,18.6325385 125.857046,18.6325385 C126.651963,18.6325385 127.276531,18.3317722 127.730769,17.7302308 C128.185007,17.1286893 128.412123,16.2759286 128.412123,15.1719231 C128.412123,14.0679176 128.181459,13.2151569 127.720123,12.6136154 C127.258787,12.0120739 126.637768,11.7113077 125.857046,11.7113077 C125.076324,11.7113077 124.455305,12.0085355 123.993969,12.603 C123.532634,13.1974645 123.301969,14.0537636 123.301969,15.1719231 C123.301969,16.2900825 123.529085,17.1463816 123.983323,17.7408462 Z M129.647077,19.5454615 C128.653431,20.5928514 127.3901,21.1165385 125.857046,21.1165385 C124.323992,21.1165385 123.060661,20.5928514 122.067015,19.5454615 C121.073369,18.4980717 120.576554,17.0402401 120.576554,15.1719231 C120.576554,13.3319139 121.087564,11.8811538 122.1096,10.8196154 C123.131636,9.75807162 124.380772,9.22730769 125.857046,9.22730769 C127.33332,9.22730769 128.582456,9.75807162 129.604492,10.8196154 C130.626528,11.8811538 131.137538,13.3319139 131.137538,15.1719231 C131.137538,17.0402401 130.640723,18.4980717 129.647077,19.5454615 Z M133.373231,20.7980769 L133.373231,9.54576923 L136.034769,9.54576923 L136.034769,10.6285385 L136.077354,10.6285385 C136.389643,10.2322288 136.815484,9.89961673 137.354892,9.63069231 C137.8943,9.36176789 138.462089,9.22730769 139.058277,9.22730769 C140.307432,9.22730769 141.286868,9.59884244 141.996615,10.3419231 C142.706363,11.0850037 143.061231,12.1146857 143.061231,13.431 L143.061231,20.7980769 L140.293231,20.7980769 L140.293231,14.1103846 C140.293231,13.3319192 140.144186,12.7480789 139.846092,12.3588462 C139.547999,11.9696134 139.036988,11.775 138.313046,11.775 C137.631689,11.775 137.099387,11.9696134 136.716123,12.3588462 C136.33286,12.7480789 136.141231,13.2682275 136.141231,13.9193077 L136.141231,20.7980769 L133.373231,20.7980769 Z" id="Amathon"></path>
                    <g id="i-2" transform="translate(0.642308, 0.894231)">
                        <path d="M9.97877458,25.875 C16.5162426,25.875 21.4109379,18.3133521 22.6230769,16.2548077 C21.4109379,14.1962633 16.5154245,6.63461538 9.97877458,6.63461538 C4.47674174,6.63461538 0,10.9501677 0,16.2548077 C0,21.5594477 4.47674174,25.875 9.97877458,25.875 Z" id="Path"></path>
                        <path d="M35.2673793,19.2403846 C40.7694121,19.2403846 45.2461538,14.9248323 45.2461538,9.62019231 C45.2461538,4.31555227 40.7694121,0 35.2673793,0 C28.7307293,0 23.8352159,7.56164789 22.6230769,9.62019231 C23.8352159,11.6787367 28.7307293,19.2403846 35.2673793,19.2403846 Z" id="Path"></path>
                    </g>
                </g>
                <path d="M168.573,4.066 L168.573,10.298 L171.005,10.298 L171.005,12.388 L168.573,12.388 L168.573,21.736 L166.16,21.736 L166.16,4.066 L168.573,4.066 Z M162.379,12.958 C163.196,13.851 164.184,14.82 165.172,15.713 L163.633,17.328 C162.778,16.53 161.942,15.694 161.239,14.972 C160.517,14.231 159.966,13.604 159.833,13.281 L159.795,13.281 C159.681,13.623 158.997,14.402 158.37,15.048 C157.667,15.789 156.926,16.511 155.843,17.518 L154.266,15.884 C155.33,14.934 156.299,13.984 157.116,13.091 C158.218,11.875 158.579,10.944 158.579,9.386 L158.579,5.32 L161.03,5.32 L161.03,9.386 C161.03,10.887 161.239,11.723 162.379,12.958 Z M183.915,16.644 L183.915,10.602 L181.084,10.602 L181.084,8.55 L183.915,8.55 L183.915,4.066 L186.309,4.066 L186.309,16.644 L183.915,16.644 Z M177.474,15.618 L177.474,19.494 L186.594,19.494 L186.594,21.546 L175.061,21.546 L175.061,15.618 L177.474,15.618 Z M172.477,7.22 L172.477,5.168 L181.597,5.168 L181.597,7.22 L178.31,7.22 L178.31,8.702 C178.31,9.633 178.538,10.184 179.545,10.963 C180.343,11.571 181.293,12.217 182.243,12.825 L180.951,14.535 C180.134,14.003 179.317,13.433 178.614,12.92 C177.816,12.331 177.322,11.894 177.246,11.704 L177.227,11.704 C177.151,11.932 176.619,12.445 175.745,13.129 C174.928,13.775 174.092,14.421 173.142,15.086 L171.736,13.319 C172.933,12.502 174.073,11.628 174.871,10.925 C175.536,10.336 175.916,9.633 175.916,8.702 L175.916,7.22 L172.477,7.22 Z M193.281,17.499 L196.739,17.499 L196.739,11.628 L199.076,11.628 L199.076,17.499 L200.767,17.499 L200.767,11.628 L203.104,11.628 L203.104,17.499 L209.469,17.499 L209.469,19.513 L193.281,19.513 L193.281,17.499 Z M206.809,15.637 L204.472,15.333 C204.909,12.958 204.966,10.982 204.966,8.74 L204.966,7.619 L195.219,7.619 L195.219,5.548 L207.322,5.548 L207.322,8.113 C207.322,10.944 207.227,13.3 206.809,15.637 Z M212.48,16.074 L214.57,16.074 L214.57,14.193 L210.371,14.193 L210.371,12.217 L226.559,12.217 L226.559,14.193 L222.36,14.193 L222.36,16.074 L224.374,16.074 L224.374,21.945 L221.98,21.945 L221.98,18.05 L212.48,18.05 L212.48,16.074 Z M218.465,11.381 C215.064,11.381 212.67,10.184 212.67,8.018 L212.67,7.6 C212.67,5.434 215.064,4.237 218.465,4.237 C221.866,4.237 224.26,5.434 224.26,7.6 L224.26,8.018 C224.26,10.184 221.866,11.381 218.465,11.381 Z M218.465,6.175 C216.337,6.175 215.045,6.764 215.045,7.638 L215.045,7.98 C215.045,8.854 216.337,9.443 218.465,9.443 C220.593,9.443 221.885,8.854 221.885,7.98 L221.885,7.638 C221.885,6.764 220.593,6.175 218.465,6.175 Z M216.926,14.193 L216.926,16.074 L220.004,16.074 L220.004,14.193 L216.926,14.193 Z M241.549,20.881 L241.549,11.628 L239.174,11.628 L239.174,9.538 L241.549,9.538 L241.549,4.427 L243.829,4.427 L243.829,20.881 L241.549,20.881 Z M235.146,9.728 L235.146,5.472 L237.521,5.472 L237.521,9.728 C237.521,11.172 237.863,11.951 238.661,12.939 C239.364,13.813 240.257,14.782 241.131,15.656 L239.554,17.119 C238.737,16.283 238.015,15.504 237.445,14.839 C236.875,14.174 236.571,13.775 236.457,13.509 L236.438,13.509 C236.343,13.775 235.925,14.364 235.45,14.915 C234.937,15.504 233.968,16.587 233.113,17.423 L231.498,15.865 C232.315,15.067 233.265,14.041 233.987,13.129 C234.88,11.989 235.146,11.248 235.146,9.728 Z M247.42,4.066 L247.42,21.736 L245.14,21.736 L245.14,4.066 L247.42,4.066 Z M261.394,16.625 L261.394,11.533 L258.373,11.533 L258.373,9.519 L261.394,9.519 L261.394,8.322 L258.373,8.322 L258.373,6.308 L261.394,6.308 L261.394,4.066 L263.769,4.066 L263.769,16.625 L261.394,16.625 Z M254.459,11.438 L254.44,11.438 C254.364,11.761 253.851,12.255 253.281,12.787 C252.426,13.585 251.628,14.269 250.45,15.219 L248.968,13.471 C249.956,12.711 251.001,11.799 251.875,10.963 C252.787,10.089 253.148,9.291 253.148,7.999 L253.148,4.826 L255.58,4.826 L255.58,7.904 C255.58,9.291 255.827,9.918 256.815,10.773 C257.727,11.552 258.677,12.274 259.589,12.92 L258.221,14.573 C257.48,14.041 256.644,13.395 255.751,12.673 C255.086,12.141 254.573,11.761 254.459,11.438 Z M254.934,15.637 L254.934,19.494 L264.054,19.494 L264.054,21.546 L252.521,21.546 L252.521,15.637 L254.934,15.637 Z" id="사전교육세션"></path>
            </g>
        </g>
    </g>
</svg>