<?xml version="1.0" encoding="UTF-8"?>
<svg width="145px" height="15px" viewBox="0 0 145 15" version="1.1" xmlns="http://www.w3.org/2000/svg" xmlns:xlink="http://www.w3.org/1999/xlink">
    <!-- Generator: Sketch 55.2 (78181) - https://sketchapp.com -->
    <title>Group 10</title>
    <desc>Created with Sketch.</desc>
    <g id="Page-1" stroke="none" stroke-width="1" fill="none" fill-rule="evenodd">
        <g id="Web-Landing" transform="translate(-55.000000, -5233.000000)" fill-rule="nonzero">
            <g id="Group-10" transform="translate(55.000000, 5230.000000)">
                <path d="M31.66,12.712 L33.242,12.712 C34.1566712,12.712 34.8659975,12.4343361 35.37,11.879 C35.8740025,11.3236639 36.126,10.3926732 36.126,9.086 C36.126,7.90066074 35.8740025,7.00700301 35.37,6.405 C34.8659975,5.80299699 34.184671,5.502 33.326,5.502 L31.66,5.502 L31.66,12.712 Z M30.26,14 L30.26,4.2 L33.396,4.2 C33.9560028,4.2 34.4833309,4.29799902 34.978,4.494 C35.4726691,4.69000098 35.9206647,4.97933142 36.322,5.362 C36.7233353,5.74466858 37.0429988,6.25566347 37.281,6.895 C37.5190012,7.53433653 37.638,8.26466256 37.638,9.086 C37.638,9.98200448 37.5166679,10.76133 37.274,11.424 C37.0313321,12.08667 36.7000021,12.5976649 36.28,12.957 C35.8599979,13.3163351 35.4050024,13.5799992 34.915,13.748 C34.4249976,13.9160008 33.8906696,14 33.312,14 L30.26,14 Z M44.428,11.634 L45.45,12.404 C45.1606652,12.9266693 44.7593359,13.3583316 44.246,13.699 C43.7326641,14.0396684 43.107337,14.21 42.37,14.21 C41.3433282,14.21 40.5080032,13.8530036 39.864,13.139 C39.2199968,12.4249964 38.898,11.4753393 38.898,10.29 C38.898,9.10466074 39.2176635,8.15500357 39.857,7.441 C40.4963365,6.72699643 41.3106617,6.37 42.3,6.37 C43.2893383,6.37 44.0966635,6.72232981 44.722,7.427 C45.3473365,8.13167019 45.66,9.08599398 45.66,10.29 L45.66,10.696 L40.284,10.696 C40.3026668,11.35867 40.4869982,11.9069978 40.837,12.341 C41.1870018,12.7750022 41.6886634,12.992 42.342,12.992 C42.6500015,12.992 42.9229988,12.9500004 43.161,12.866 C43.3990012,12.7819996 43.6043325,12.6536675 43.777,12.481 C43.9496675,12.3083325 44.073333,12.1706672 44.148,12.068 C44.222667,11.9653328 44.3159994,11.8206676 44.428,11.634 Z M40.298,9.632 L44.302,9.632 C44.2739999,9.06266382 44.0966683,8.57966865 43.77,8.183 C43.4433317,7.78633135 42.9533366,7.588 42.3,7.588 C41.6746635,7.588 41.1893351,7.80033121 40.844,8.225 C40.4986649,8.64966879 40.3166668,9.1186641 40.298,9.632 Z M46.85,11.508 L48.11,11.228 C48.2500007,12.4413394 48.8893276,13.048 50.028,13.048 C50.569336,13.048 50.9846652,12.950001 51.274,12.754 C51.5633348,12.557999 51.708,12.3013349 51.708,11.984 C51.708,11.6573317 51.572668,11.4123341 51.302,11.249 C51.031332,11.0856658 50.466671,10.8826679 49.608,10.64 C48.7119955,10.3973321 48.0726686,10.1150016 47.69,9.793 C47.3073314,9.47099839 47.116,9.03466942 47.116,8.484 C47.116,7.91466382 47.3516643,7.4200021 47.823,7 C48.2943357,6.5799979 48.9406626,6.37 49.762,6.37 C50.5926708,6.37 51.2506642,6.56599804 51.736,6.958 C52.2213358,7.35000196 52.5526658,7.8726634 52.73,8.526 L51.554,8.848 C51.2646652,7.9613289 50.6720045,7.518 49.776,7.518 C49.3279978,7.518 48.9826679,7.60899909 48.74,7.791 C48.4973321,7.97300091 48.376,8.18999874 48.376,8.442 C48.376,8.7220014 48.5019987,8.9319993 48.754,9.072 C49.0060013,9.2120007 49.5939954,9.41266536 50.518,9.674 C51.4420046,9.93533464 52.0789982,10.2409983 52.429,10.591 C52.7790017,10.9410017 52.954,11.4099971 52.954,11.998 C52.9633334,12.5860029 52.7253358,13.1016645 52.24,13.545 C51.7546642,13.9883356 51.0313381,14.21 50.07,14.21 C49.0713283,14.21 48.3060027,13.9533359 47.774,13.44 C47.2419973,12.9266641 46.9340004,12.2826705 46.85,11.508 Z M54.704,14 L54.704,6.58 L56.062,6.58 L56.062,14 L54.704,14 Z M54.648,5.222 L54.648,3.78 L56.118,3.78 L56.118,5.222 L54.648,5.222 Z M58.414,15.4 L59.506,14.77 C59.702001,15.2086689 59.9423319,15.5493321 60.227,15.792 C60.5116681,16.0346679 60.9013309,16.156 61.396,16.156 C61.9466694,16.156 62.3806651,15.9973349 62.698,15.68 C63.0153349,15.3626651 63.174,14.9053363 63.174,14.308 L63.174,13.342 L63.146,13.342 C62.7073311,13.9206696 62.0446711,14.21 61.158,14.21 C60.1873285,14.21 59.3963364,13.8576702 58.785,13.153 C58.1736636,12.4483298 57.868,11.494006 57.868,10.29 C57.868,9.10466074 58.1829968,8.15500357 58.813,7.441 C59.4430031,6.72699643 60.2199954,6.37 61.144,6.37 C62.002671,6.37 62.6839975,6.67799692 63.188,7.294 L63.216,7.294 L63.216,6.58 L64.532,6.58 L64.532,14.07 C64.532,15.1433387 64.2520028,15.9599972 63.692,16.52 C63.1319972,17.0800028 62.3713381,17.36 61.41,17.36 C60.6539962,17.36 60.0193359,17.1803351 59.506,16.821 C58.9926641,16.4616649 58.6286677,15.9880029 58.414,15.4 Z M63.174,11.396 L63.174,9.324 C63.174,8.87599776 63.008335,8.47933506 62.677,8.134 C62.345665,7.78866494 61.909336,7.616 61.368,7.616 C60.6959966,7.616 60.1710019,7.849331 59.793,8.316 C59.4149981,8.782669 59.226,9.44066242 59.226,10.29 C59.226,11.1393376 59.4149981,11.7996643 59.793,12.271 C60.1710019,12.7423357 60.6959966,12.978 61.368,12.978 C61.8906693,12.978 62.3223316,12.8216682 62.663,12.509 C63.0036684,12.1963318 63.174,11.8253355 63.174,11.396 Z M66.702,14 L66.702,6.58 L68.032,6.58 L68.032,7.294 L68.06,7.294 C68.256001,7.03266536 68.5406648,6.81333422 68.914,6.636 C69.2873352,6.45866578 69.6793313,6.37 70.09,6.37 C70.9020041,6.37 71.5506642,6.61733086 72.036,7.112 C72.5213358,7.60666914 72.764,8.28332904 72.764,9.142 L72.764,14 L71.392,14 L71.392,9.534 C71.392,8.26466032 70.8693386,7.63 69.824,7.63 C69.2919973,7.63 68.8650016,7.78166515 68.543,8.085 C68.2209984,8.38833485 68.06,8.80599734 68.06,9.338 L68.06,14 L66.702,14 Z M79.974,11.634 L80.996,12.404 C80.7066652,12.9266693 80.3053359,13.3583316 79.792,13.699 C79.2786641,14.0396684 78.653337,14.21 77.916,14.21 C76.8893282,14.21 76.0540032,13.8530036 75.41,13.139 C74.7659968,12.4249964 74.444,11.4753393 74.444,10.29 C74.444,9.10466074 74.7636635,8.15500357 75.403,7.441 C76.0423365,6.72699643 76.8566617,6.37 77.846,6.37 C78.8353383,6.37 79.6426635,6.72232981 80.268,7.427 C80.8933365,8.13167019 81.206,9.08599398 81.206,10.29 L81.206,10.696 L75.83,10.696 C75.8486668,11.35867 76.0329982,11.9069978 76.383,12.341 C76.7330017,12.7750022 77.2346634,12.992 77.888,12.992 C78.1960015,12.992 78.4689988,12.9500004 78.707,12.866 C78.9450012,12.7819996 79.1503325,12.6536675 79.323,12.481 C79.4956675,12.3083325 79.619333,12.1706672 79.694,12.068 C79.768667,11.9653328 79.8619994,11.8206676 79.974,11.634 Z M75.844,9.632 L79.848,9.632 C79.8199999,9.06266382 79.6426683,8.57966865 79.316,8.183 C78.9893317,7.78633135 78.4993366,7.588 77.846,7.588 C77.2206635,7.588 76.7353351,7.80033121 76.39,8.225 C76.0446649,8.64966879 75.8626668,9.1186641 75.844,9.632 Z M87.702,11.354 L87.702,9.366 C87.702,8.90866438 87.5386683,8.50266844 87.212,8.148 C86.8853317,7.79333156 86.4466694,7.616 85.896,7.616 C85.23333,7.616 84.7223351,7.84699769 84.363,8.309 C84.0036649,8.77100231 83.824,9.43132904 83.824,10.29 C83.824,11.148671 84.0013316,11.811331 84.356,12.278 C84.7106684,12.744669 85.2239966,12.978 85.896,12.978 C86.4280027,12.978 86.8619983,12.8170016 87.198,12.495 C87.5340017,12.1729984 87.702,11.7926689 87.702,11.354 Z M87.814,14 L87.814,13.286 L87.786,13.286 C87.244664,13.9020031 86.544671,14.21 85.686,14.21 C84.7059951,14.21 83.9243362,13.8553369 83.341,13.146 C82.7576638,12.4366631 82.466,11.4846726 82.466,10.29 C82.466,9.10466074 82.7763302,8.15500357 83.397,7.441 C84.0176698,6.72699643 84.7759955,6.37 85.672,6.37 C86.4746707,6.37 87.1419973,6.67799692 87.674,7.294 L87.702,7.294 L87.702,3.78 L89.06,3.78 L89.06,14 L87.814,14 Z M96.158,9.366 L96.158,11.354 C96.158,11.7926689 96.3259983,12.1729984 96.662,12.495 C96.9980017,12.8170016 97.4319973,12.978 97.964,12.978 C98.6360034,12.978 99.1493316,12.744669 99.504,12.278 C99.8586684,11.811331 100.036,11.148671 100.036,10.29 C100.036,9.43132904 99.8563351,8.77100231 99.497,8.309 C99.1376649,7.84699769 98.62667,7.616 97.964,7.616 C97.4133306,7.616 96.9746683,7.79333156 96.648,8.148 C96.3213317,8.50266844 96.158,8.90866438 96.158,9.366 Z M94.8,14 L94.8,3.78 L96.158,3.78 L96.158,7.294 L96.186,7.294 C96.7180027,6.67799692 97.3899959,6.37 98.202,6.37 C99.1260046,6.37 99.888997,6.72932974 100.491,7.448 C101.093003,8.16667026 101.394,9.11399412 101.394,10.29 C101.394,11.4846726 101.102336,12.4366631 100.519,13.146 C99.9356638,13.8553369 99.1540049,14.21 98.174,14.21 C97.315329,14.21 96.615336,13.9020031 96.074,13.286 L96.046,13.286 L96.046,14 L94.8,14 Z M103.606,17.15 L105.034,13.482 L102.234,6.58 L103.662,6.58 L105.692,11.886 L107.708,6.58 L109.108,6.58 L104.936,17.15 L103.606,17.15 Z M116.066,14 L116.066,5.502 L113.098,5.502 L113.098,4.2 L120.448,4.2 L120.448,5.502 L117.466,5.502 L117.466,14 L116.066,14 Z M124.76,12.978 C125.357336,12.978 125.842665,12.7423357 126.216,12.271 C126.589335,11.7996643 126.776,11.1393376 126.776,10.29 C126.776,9.4499958 126.589335,8.79433569 126.216,8.323 C125.842665,7.85166431 125.357336,7.616 124.76,7.616 C124.143997,7.616 123.647002,7.84699769 123.269,8.309 C122.890998,8.77100231 122.702,9.43132904 122.702,10.29 C122.702,11.148671 122.893331,11.811331 123.276,12.278 C123.658669,12.744669 124.15333,12.978 124.76,12.978 Z M124.76,14.21 C123.770662,14.21 122.956337,13.8646701 122.317,13.174 C121.677663,12.4833299 121.358,11.5220062 121.358,10.29 C121.358,9.0766606 121.684663,8.1200035 122.338,7.42 C122.991337,6.7199965 123.798662,6.37 124.76,6.37 C125.702671,6.37 126.49833,6.7199965 127.147,7.42 C127.79567,8.1200035 128.12,9.0766606 128.12,10.29 C128.12,11.5220062 127.805003,12.4833299 127.175,13.174 C126.544997,13.8646701 125.740005,14.21 124.76,14.21 Z M129.87,14 L129.87,6.58 L131.2,6.58 L131.2,7.294 L131.228,7.294 C131.424001,7.03266536 131.708665,6.81333422 132.082,6.636 C132.455335,6.45866578 132.847331,6.37 133.258,6.37 C134.070004,6.37 134.718664,6.61733086 135.204,7.112 C135.689336,7.60666914 135.932,8.28332904 135.932,9.142 L135.932,14 L134.56,14 L134.56,9.534 C134.56,8.26466032 134.037339,7.63 132.992,7.63 C132.459997,7.63 132.033002,7.78166515 131.711,8.085 C131.388998,8.38833485 131.228,8.80599734 131.228,9.338 L131.228,14 L129.87,14 Z M138.564,17.15 L139.992,13.482 L137.192,6.58 L138.62,6.58 L140.65,11.886 L142.666,6.58 L144.066,6.58 L139.894,17.15 L138.564,17.15 Z" id="DesignedbyTony" fill="#FFFFFF"></path>
                <g id="i-2" transform="translate(0.000000, 3.000000)" stroke="#FFFFFF">
                    <path d="M9.42494947,7.50000159 C8.1335069,5.27414285 6.3542553,3.5 4.41088302,3.5 C2.25719098,3.5 0.5,5.29265191 0.5,7.5 C0.5,9.70734809 2.25719098,11.5 4.41088302,11.5 C6.35451032,11.5 8.13333096,9.72621966 9.42494947,7.50000159 Z" id="Path"></path>
                    <path d="M10.5750515,4.5 C11.8664939,6.72585799 13.6457452,8.5 15.589117,8.5 C17.742809,8.5 19.5,6.70734809 19.5,4.5 C19.5,2.29265191 17.742809,0.5 15.589117,0.5 C13.6457452,0.5 11.8664939,2.27414201 10.5750515,4.5 Z" id="Path"></path>
                </g>
            </g>
        </g>
    </g>
</svg>