<?xml version="1.0" encoding="UTF-8"?>
<svg width="57px" height="12px" viewBox="0 0 57 12" version="1.1" xmlns="http://www.w3.org/2000/svg" xmlns:xlink="http://www.w3.org/1999/xlink">
    <g stroke="none" stroke-width="1" fill="none" fill-rule="evenodd">
        <g transform="translate(-625.000000, -34.000000)" fill="#FFFFFF" fill-rule="nonzero">
            <g transform="translate(625.000000, 31.000000)">
                <path d="M7.14,14 L6.496,12.194 L2.296,12.194 L1.666,14 L0.21,14 L3.752,4.2 L5.096,4.2 L8.624,14 L7.14,14 Z M4.382,6.216 L2.716,10.99 L6.076,10.99 L4.41,6.216 L4.382,6.216 Z M9.954,14 L9.954,6.58 L11.186,6.58 L11.186,7.294 L11.214,7.294 C11.3913342,7.02333198 11.6503316,6.80166753 11.991,6.629 C12.3316684,6.45633247 12.6933314,6.37 13.076,6.37 C13.5146689,6.37 13.899665,6.47033233 14.231,6.671 C14.562335,6.87166767 14.8166658,7.12133184 14.994,7.42 L15.022,7.42 C15.218001,7.13066522 15.4979982,6.88333436 15.862,6.678 C16.2260018,6.47266564 16.6319978,6.37 17.08,6.37 C17.9013374,6.37 18.5499976,6.603331 19.026,7.07 C19.5020024,7.536669 19.74,8.16199608 19.74,8.946 L19.74,14 L18.452,14 L18.452,9.296 C18.452,8.18532778 17.9713381,7.63 17.01,7.63 C16.5339976,7.63 16.1653346,7.7699986 15.904,8.05 C15.6426654,8.3300014 15.512,8.71266424 15.512,9.198 L15.512,14 L14.224,14 L14.224,9.296 C14.224,8.18532778 13.7433381,7.63 12.782,7.63 C12.2873309,7.63 11.9140013,7.77699853 11.662,8.071 C11.4099987,8.36500147 11.284,8.74066438 11.284,9.198 L11.284,14 L9.954,14 Z M26.18,14 L26.18,13.216 L26.152,13.216 C26.0493328,13.4213344 25.8090019,13.6383322 25.431,13.867 C25.0529981,14.0956678 24.5653363,14.21 23.968,14.21 C23.1186624,14.21 22.4816688,14.007002 22.057,13.601 C21.6323312,13.194998 21.42,12.6840031 21.42,12.068 C21.42,11.4426635 21.6089981,10.9573351 21.987,10.612 C22.3650019,10.2666649 23.0066621,9.98200112 23.912,9.758 C24.7146707,9.55266564 25.2583319,9.37533408 25.543,9.226 C25.8276681,9.07666592 25.97,8.85733478 25.97,8.568 C25.97,8.27866522 25.8486679,8.03833429 25.606,7.847 C25.3633321,7.65566571 24.9993358,7.56 24.514,7.56 C23.5899954,7.56 23.0160011,8.026662 22.792,8.96 L21.602,8.54 C21.7326673,7.89599678 22.0453309,7.37333534 22.54,6.972 C23.0346691,6.57066466 23.6833293,6.37 24.486,6.37 C25.3540043,6.37 26.051664,6.59166445 26.579,7.035 C27.106336,7.47833555 27.37,8.166662 27.37,9.1 L27.37,14 L26.18,14 Z M24.22,10.752 C23.6413304,10.9106675 23.2516677,11.0833324 23.051,11.27 C22.8503323,11.4566676 22.75,11.6946652 22.75,11.984 C22.75,12.6653367 23.1979955,13.006 24.094,13.006 C24.7193365,13.006 25.1999983,12.870668 25.536,12.6 C25.8720017,12.329332 26.04,11.998002 26.04,11.606 L26.04,9.94 L26.012,9.94 C25.9746665,10.0240004 25.918667,10.096333 25.844,10.157 C25.769333,10.217667 25.596668,10.3016661 25.326,10.409 C25.055332,10.5163339 24.686669,10.6306661 24.22,10.752 Z M29.792,11.676 L29.792,7.77 L28.7,7.77 L28.7,6.58 L29.82,6.58 L29.82,4.76 L31.122,4.76 L31.122,6.58 L32.97,6.58 L32.97,7.77 L31.136,7.77 L31.136,11.536 C31.136,11.9560021 31.1989994,12.2523325 31.325,12.425 C31.4510006,12.5976675 31.7053314,12.684 32.088,12.684 L32.648,12.684 L32.648,14 L31.99,14 C31.1873293,14 30.620335,13.8086686 30.289,13.426 C29.957665,13.0433314 29.792,12.4600039 29.792,11.676 Z M34.65,14 L34.65,3.78 L36.008,3.78 L36.008,7.322 L36.036,7.322 C36.2226676,7.05133198 36.5049981,6.82500091 36.883,6.643 C37.2610019,6.46099909 37.6646645,6.37 38.094,6.37 C38.8873373,6.37 39.5266642,6.61266424 40.012,7.098 C40.4973358,7.58333576 40.74,8.25999566 40.74,9.128 L40.74,14 L39.382,14 L39.382,9.464 C39.382,8.9039972 39.246668,8.45833499 38.976,8.127 C38.705332,7.79566501 38.3040027,7.63 37.772,7.63 C37.2493307,7.63 36.8246683,7.78866508 36.498,8.106 C36.1713317,8.42333492 36.008,8.83399748 36.008,9.338 L36.008,14 L34.65,14 Z M45.822,12.978 C46.4193363,12.978 46.9046648,12.7423357 47.278,12.271 C47.6513352,11.7996643 47.838,11.1393376 47.838,10.29 C47.838,9.4499958 47.6513352,8.79433569 47.278,8.323 C46.9046648,7.85166431 46.4193363,7.616 45.822,7.616 C45.2059969,7.616 44.7090019,7.84699769 44.331,8.309 C43.9529981,8.77100231 43.764,9.43132904 43.764,10.29 C43.764,11.148671 43.9553314,11.811331 44.338,12.278 C44.7206686,12.744669 45.2153303,12.978 45.822,12.978 Z M45.822,14.21 C44.8326617,14.21 44.0183365,13.8646701 43.379,13.174 C42.7396635,12.4833299 42.42,11.5220062 42.42,10.29 C42.42,9.0766606 42.7466634,8.1200035 43.4,7.42 C44.0533366,6.7199965 44.8606619,6.37 45.822,6.37 C46.7646714,6.37 47.5603301,6.7199965 48.209,7.42 C48.8576699,8.1200035 49.182,9.0766606 49.182,10.29 C49.182,11.5220062 48.8670032,12.4833299 48.237,13.174 C47.6069969,13.8646701 46.8020049,14.21 45.822,14.21 Z M50.932,14 L50.932,6.58 L52.262,6.58 L52.262,7.294 L52.29,7.294 C52.486001,7.03266536 52.7706648,6.81333422 53.144,6.636 C53.5173352,6.45866578 53.9093313,6.37 54.32,6.37 C55.1320041,6.37 55.7806642,6.61733086 56.266,7.112 C56.7513358,7.60666914 56.994,8.28332904 56.994,9.142 L56.994,14 L55.622,14 L55.622,9.534 C55.622,8.26466032 55.0993386,7.63 54.054,7.63 C53.5219973,7.63 53.0950016,7.78166515 52.773,8.085 C52.4509984,8.38833485 52.29,8.80599734 52.29,9.338 L52.29,14 L50.932,14 Z" ></path>
            </g>
        </g>
    </g>
</svg>
