<?xml version="1.0" encoding="UTF-8"?>
<svg width="66px" height="11px" viewBox="0 0 66 11" version="1.1" xmlns="http://www.w3.org/2000/svg" xmlns:xlink="http://www.w3.org/1999/xlink">
    <g stroke="none" stroke-width="1" fill="none" fill-rule="evenodd">
        <g transform="translate(-714.000000, -35.000000)" fill="#FFFFFF" fill-rule="nonzero">
            <g transform="translate(625.000000, 31.000000)">
                <path d="M96.14,14 L95.496,12.194 L91.296,12.194 L90.666,14 L89.21,14 L92.752,4.2 L94.096,4.2 L97.624,14 L96.14,14 Z M93.382,6.216 L91.716,10.99 L95.076,10.99 L93.41,6.216 L93.382,6.216 Z M100.228,14 L98.394,4.2 L99.822,4.2 L101.222,11.69 L101.25,11.69 L103.616,4.2 L104.694,4.2 L107.074,11.69 L107.102,11.69 L108.502,4.2 L109.902,4.2 L108.068,14 L106.5,14 L104.148,6.58 L104.12,6.58 L101.81,14 L100.228,14 Z M111.092,10.654 L112.562,10.36 C112.692667,11.2466711 112.935332,11.8906647 113.29,12.292 C113.644668,12.6933353 114.227996,12.894 115.04,12.894 C115.70267,12.894 116.213665,12.7540014 116.573,12.474 C116.932335,12.1939986 117.112,11.8346689 117.112,11.396 C117.112,10.9573311 116.948668,10.6120013 116.622,10.36 C116.295332,10.1079987 115.572006,9.80466844 114.452,9.45 C113.387995,9.11399832 112.629669,8.72900217 112.177,8.295 C111.724331,7.86099783 111.498,7.30800336 111.498,6.636 C111.498,5.90799636 111.782664,5.28500259 112.352,4.767 C112.921336,4.24899741 113.691328,3.99 114.662,3.99 C115.576671,3.99 116.35133,4.21866438 116.986,4.676 C117.62067,5.13333562 118.007999,5.8053289 118.148,6.692 L116.748,7 C116.626666,6.45866396 116.407335,6.04100147 116.09,5.747 C115.772665,5.45299853 115.29667,5.306 114.662,5.306 C114.08333,5.306 113.644668,5.43199874 113.346,5.684 C113.047332,5.93600126 112.898,6.25333142 112.898,6.636 C112.898,6.98133506 113.047332,7.25899895 113.346,7.469 C113.644668,7.67900105 114.316661,7.95666494 115.362,8.302 C116.584673,8.71266872 117.412998,9.13266452 117.847,9.562 C118.281002,9.99133548 118.498,10.574663 118.498,11.312 C118.498,12.1426708 118.18767,12.8333306 117.567,13.384 C116.94633,13.9346694 116.099339,14.21 115.026,14.21 C113.868661,14.21 112.95867,13.909003 112.296,13.307 C111.63333,12.704997 111.232001,11.8206725 111.092,10.654 Z M120.108,14 L120.108,4.2 L121.508,4.2 L121.508,8.764 L121.55,8.764 L125.358,4.2 L127.094,4.2 L123.496,8.498 L127.5,14 L125.806,14 L122.53,9.506 L122.502,9.506 L121.508,10.724 L121.508,14 L120.108,14 Z M128.76,14 L128.76,4.2 L132.596,4.2 C133.604005,4.2 134.406664,4.45899741 135.004,4.977 C135.601336,5.49500259 135.9,6.22999524 135.9,7.182 C135.9,8.01267082 135.704002,8.65199776 135.312,9.1 C134.919998,9.54800224 134.35067,9.85133254 133.604,10.01 L135.746,14 L134.206,14 L132.134,10.122 L130.16,10.122 L130.16,14 L128.76,14 Z M130.16,8.876 L132.484,8.876 C133.09067,8.876 133.575998,8.74066802 133.94,8.47 C134.304002,8.19933198 134.486,7.77000294 134.486,7.182 C134.486,6.04332764 133.814007,5.474 132.47,5.474 L130.16,5.474 L130.16,8.876 Z M137.51,10.808 L137.51,4.2 L138.91,4.2 L138.91,10.724 C138.91,11.4240035 139.089665,11.9606648 139.449,12.334 C139.808335,12.7073352 140.342663,12.894 141.052,12.894 C141.761337,12.894 142.297998,12.7096685 142.662,12.341 C143.026002,11.9723315 143.208,11.4426701 143.208,10.752 L143.208,4.2 L144.608,4.2 L144.608,10.808 C144.608,11.9186722 144.293003,12.7633304 143.663,13.342 C143.032997,13.9206696 142.162672,14.21 141.052,14.21 C139.941328,14.21 139.073336,13.9206696 138.448,13.342 C137.822664,12.7633304 137.51,11.9186722 137.51,10.808 Z M150.544,14.21 C149.96533,14.21 149.431002,14.1096677 148.941,13.909 C148.450998,13.7083323 148.010002,13.4073353 147.618,13.006 C147.225998,12.6046647 146.918001,12.0610034 146.694,11.375 C146.469999,10.6889966 146.358,9.89333786 146.358,8.988 C146.358,8.18532932 146.474666,7.45966991 146.708,6.811 C146.941334,6.16233009 147.253998,5.63733534 147.646,5.236 C148.038002,4.83466466 148.481331,4.52666774 148.976,4.312 C149.470669,4.09733226 149.988664,3.99 150.53,3.99 C151.500672,3.99 152.321997,4.28866368 152.994,4.886 C153.666003,5.48333632 154.081333,6.2719951 154.24,7.252 L152.812,7.504 C152.513332,6.03865934 151.757339,5.306 150.544,5.306 C149.769329,5.306 149.120669,5.62099685 148.598,6.251 C148.075331,6.88100315 147.814,7.79332736 147.814,8.988 C147.814,10.2760064 148.068331,11.2489967 148.577,11.907 C149.085669,12.5650033 149.741329,12.894 150.544,12.894 C151.29067,12.894 151.876331,12.6700022 152.301,12.222 C152.725669,11.7739978 152.933333,11.1486707 152.924,10.346 L150.67,10.346 L150.67,9.1 L154.296,9.1 L154.296,10.164 C154.296,11.4240063 153.95067,12.4133297 153.26,13.132 C152.56933,13.8506703 151.664006,14.21 150.544,14.21 Z"></path>
            </g>
        </g>
    </g>
</svg>
