<?xml version="1.0" encoding="UTF-8"?>
<svg width="36px" height="11px" viewBox="0 0 36 11" version="1.1" xmlns="http://www.w3.org/2000/svg" xmlns:xlink="http://www.w3.org/1999/xlink">
    <g stroke="none" stroke-width="1" fill="none" fill-rule="evenodd">
        <g transform="translate(-810.000000, -35.000000)" fill="#FFFFFF" fill-rule="nonzero">
            <g transform="translate(625.000000, 31.000000)">
                <path d="M192.14,14 L191.496,12.194 L187.296,12.194 L186.666,14 L185.21,14 L188.752,4.2 L190.096,4.2 L193.624,14 L192.14,14 Z M189.382,6.216 L187.716,10.99 L191.076,10.99 L189.41,6.216 L189.382,6.216 Z M194.884,10.808 L194.884,4.2 L196.284,4.2 L196.284,10.724 C196.284,11.4240035 196.463665,11.9606648 196.823,12.334 C197.182335,12.7073352 197.716663,12.894 198.426,12.894 C199.135337,12.894 199.671998,12.7096685 200.036,12.341 C200.400002,11.9723315 200.582,11.4426701 200.582,10.752 L200.582,4.2 L201.982,4.2 L201.982,10.808 C201.982,11.9186722 201.667003,12.7633304 201.037,13.342 C200.406997,13.9206696 199.536672,14.21 198.426,14.21 C197.315328,14.21 196.447336,13.9206696 195.822,13.342 C195.196664,12.7633304 194.884,11.9186722 194.884,10.808 Z M203.662,10.654 L205.132,10.36 C205.262667,11.2466711 205.505332,11.8906647 205.86,12.292 C206.214668,12.6933353 206.797996,12.894 207.61,12.894 C208.27267,12.894 208.783665,12.7540014 209.143,12.474 C209.502335,12.1939986 209.682,11.8346689 209.682,11.396 C209.682,10.9573311 209.518668,10.6120013 209.192,10.36 C208.865332,10.1079987 208.142006,9.80466844 207.022,9.45 C205.957995,9.11399832 205.199669,8.72900217 204.747,8.295 C204.294331,7.86099783 204.068,7.30800336 204.068,6.636 C204.068,5.90799636 204.352664,5.28500259 204.922,4.767 C205.491336,4.24899741 206.261328,3.99 207.232,3.99 C208.146671,3.99 208.92133,4.21866438 209.556,4.676 C210.19067,5.13333562 210.577999,5.8053289 210.718,6.692 L209.318,7 C209.196666,6.45866396 208.977335,6.04100147 208.66,5.747 C208.342665,5.45299853 207.86667,5.306 207.232,5.306 C206.65333,5.306 206.214668,5.43199874 205.916,5.684 C205.617332,5.93600126 205.468,6.25333142 205.468,6.636 C205.468,6.98133506 205.617332,7.25899895 205.916,7.469 C206.214668,7.67900105 206.886661,7.95666494 207.932,8.302 C209.154673,8.71266872 209.982998,9.13266452 210.417,9.562 C210.851002,9.99133548 211.068,10.574663 211.068,11.312 C211.068,12.1426708 210.75767,12.8333306 210.137,13.384 C209.51633,13.9346694 208.669339,14.21 207.596,14.21 C206.438661,14.21 205.52867,13.909003 204.866,13.307 C204.20333,12.704997 203.802001,11.8206725 203.662,10.654 Z M216.444,14.21 C215.86533,14.21 215.331002,14.1096677 214.841,13.909 C214.350998,13.7083323 213.910002,13.4073353 213.518,13.006 C213.125998,12.6046647 212.818001,12.0610034 212.594,11.375 C212.369999,10.6889966 212.258,9.89333786 212.258,8.988 C212.258,8.18532932 212.374665,7.45966991 212.608,6.811 C212.841334,6.16233009 213.153998,5.63733534 213.546,5.236 C213.938002,4.83466466 214.381331,4.52666774 214.876,4.312 C215.370669,4.09733226 215.888664,3.99 216.43,3.99 C217.400672,3.99 218.221997,4.28866368 218.894,4.886 C219.566003,5.48333632 219.981333,6.2719951 220.14,7.252 L218.712,7.504 C218.413332,6.03865934 217.657339,5.306 216.444,5.306 C215.669329,5.306 215.020669,5.62099685 214.498,6.251 C213.975331,6.88100315 213.714,7.79332736 213.714,8.988 C213.714,10.2760064 213.968331,11.2489967 214.477,11.907 C214.985669,12.5650033 215.641329,12.894 216.444,12.894 C217.19067,12.894 217.776331,12.6700022 218.201,12.222 C218.625669,11.7739978 218.833333,11.1486707 218.824,10.346 L216.57,10.346 L216.57,9.1 L220.196,9.1 L220.196,10.164 C220.196,11.4240063 219.85067,12.4133297 219.16,13.132 C218.46933,13.8506703 217.564006,14.21 216.444,14.21 Z"></path>
            </g>
        </g>
    </g>
</svg>
